<?xml version="1.0" encoding="UTF-8"?><svg xmlns="http://www.w3.org/2000/svg" xmlns:xlink="http://www.w3.org/1999/xlink" viewBox="0 0 605.56 615.43"><defs><style>.cls-1{fill:url(#linear-gradient);}.cls-1,.cls-2,.cls-3,.cls-4{stroke-width:0px;}.cls-2{fill:url(#linear-gradient-2);}.cls-2,.cls-3{mix-blend-mode:overlay;opacity:.3;}.cls-3{fill:url(#linear-gradient-4);}.cls-4{fill:url(#linear-gradient-3);}.cls-5{isolation:isolate;}</style><linearGradient id="linear-gradient" x1="724.48" y1="39.03" x2="-88.07" y2="303.73" gradientUnits="userSpaceOnUse"><stop offset=".4" stop-color="#2ac2d3"/><stop offset="1" stop-color="#139a8a"/></linearGradient><linearGradient id="linear-gradient-2" x1="-27.16" y1="533.97" x2="444.78" y2="-34.4" gradientUnits="userSpaceOnUse"><stop offset="0" stop-color="#fff"/><stop offset=".09" stop-color="#fff" stop-opacity=".95"/><stop offset=".26" stop-color="#fff" stop-opacity=".8"/><stop offset=".5" stop-color="#fff" stop-opacity=".57"/><stop offset=".79" stop-color="#fff" stop-opacity=".25"/><stop offset="1" stop-color="#fff" stop-opacity="0"/></linearGradient><linearGradient id="linear-gradient-3" x1="-17.85" y1="698.44" x2="640.83" y2="181.34" gradientUnits="userSpaceOnUse"><stop offset="0" stop-color="#5856f3"/><stop offset=".14" stop-color="#5460ef"/><stop offset=".37" stop-color="#4b7be7"/><stop offset=".67" stop-color="#3ca7d9"/><stop offset=".82" stop-color="#34c0d2"/></linearGradient><linearGradient id="linear-gradient-4" x1="587.76" y1="76.17" x2="232.27" y2="550.16" gradientUnits="userSpaceOnUse"><stop offset="0" stop-color="#000"/><stop offset=".86" stop-color="#000" stop-opacity=".53"/><stop offset="1" stop-color="#000" stop-opacity="0"/></linearGradient></defs><g class="cls-5"><g id="Layer_2"><g id="OBJECTS"><path class="cls-1" d="M301.97,0C135.22,0,0,135.22,0,301.82c0,55.48,15.01,107.48,41.08,152.2.3-69.43,47.14-130.52,113.85-149.02,4.24-1.21,8.79-2.12,13.19-2.73,3.18-.61,6.37-.91,9.85-1.21.46-68.07,55.79-123.09,124-123.09s119.3,51.09,123.55,115.51c125.82-41.69,129.01-151.59,129.01-152.65,0-1.21.15-2.43.45-3.64C501.16,54.57,407.94,0,301.97,0Z"/><path class="cls-2" d="M301.99.03C135.21.03.02,135.22.02,301.82c0,55.45,15.01,107.47,41.05,152.19.18-37.91,14.22-73.29,37.85-100.66C95.79,202.73,223.69,85.5,378.9,85.5c65.46,0,126.09,20.85,175.58,56.3.06-.6.06-.9.06-.96,0-1.21.12-2.41.42-3.62C501.2,54.58,407.95.03,301.99.03Z"/><path class="cls-4" d="M605.54,309.42c-.12,5.06-.42,10.07-.84,15.07v.96c-.42,4.7-.84,9.58-1.45,14.47-.54,4.82-1.15,9.52-2.05,14.22-.72,4.7-1.63,9.4-2.65,14.1-.9,4.7-2.11,9.22-3.32,13.92-1.02,4.04-2.05,7.96-3.38,11.99-1.87,5.97-3.92,11.87-6.09,17.78-1.33,3.44-2.53,6.87-3.98,10.13-4.64,11.21-9.95,22.24-15.97,32.79v.18c-41.47,74.2-112.17,129.65-196.25,150.75-4.58,1.15-9.16,2.29-13.74,3.13-4.1.84-8.38,1.69-12.48,2.41-1.57.3-3.19.54-4.76.66-2.95.54-5.97.96-9.1,1.21-1.27.12-2.53.42-3.8.54-3.8.42-7.72.78-11.63,1.03-5.06.36-9.95.54-14.95.6-55.51,1.08-107.41-12.18-152.8-36.29-9.46-5.06-18.62-10.49-27.61-16.51-2.95-1.93-5.85-3.86-8.68-5.97-1.39-.96-2.77-1.99-3.98-3.07-30.14-23.93-47.07-60.94-46.11-102.11.24-11.15,1.93-21.94,4.82-32.19,12.48-44.12,47.8-78.42,92.04-89.51,3.32-.9,6.81-1.45,10.07-1.81,13.92-2.05,28.03-1.15,41.95,1.27,6.15.9,12.24,1.81,18.2,2.71,82.21,11.75,144.72,7.05,192.21-6.69,145.2-42.31,149.96-169.37,149.96-169.37,3.01,5.73,5.85,11.45,8.56,17.36v.12c1.99,4.16,3.74,8.44,5.36,12.72,1.93,4.76,3.74,9.52,5.36,14.41,2.05,5.73,3.8,11.57,5.55,17.6.3.9.6,1.87.72,2.83,1.02,3.5,1.93,6.93,2.59,10.61.9,3.44,1.57,7.11,2.29,10.73.6,2.65,1.15,5.18,1.39,7.9.96,5.48,1.81,11.21,2.29,16.88.3.78.3,1.69.42,2.47.12,1.93.24,3.68.54,5.36.84,9.95,1.27,20.01,1.21,30.08.12,1.57.06,2.95.06,4.52Z"/><path class="cls-3" d="M605.54,309.42c-.12,5.06-.42,10.07-.84,15.07v.96c-.42,4.7-.84,9.58-1.45,14.47-.54,4.82-1.15,9.52-2.05,14.22-.72,4.7-1.63,9.4-2.65,14.1-.9,4.7-2.11,9.22-3.32,13.92-1.02,4.04-2.05,7.96-3.38,11.99-1.87,5.97-3.92,11.87-6.09,17.78-1.33,3.44-2.53,6.87-3.98,10.13-4.64,11.21-9.95,22.24-15.97,32.79v.18c-41.47,74.2-112.17,129.65-196.25,150.75-4.58,1.15-9.16,2.29-13.74,3.13-4.1.84-8.38,1.69-12.48,2.41-1.57.3-3.19.54-4.76.66-2.95.54-5.97.96-9.1,1.21-1.27.12-2.53.42-3.8.54-3.8.42-7.72.78-11.63,1.03-5.06.36-9.95.54-14.95.6-55.51,1.08-107.41-12.18-152.8-36.29-9.46-5.06-18.62-10.49-27.61-16.51-2.95-1.93-5.85-3.86-8.68-5.97-1.39-.96-2.77-1.99-3.98-3.07-30.14-23.93-47.07-60.94-46.11-102.11.24-11.15,1.93-21.94,4.82-32.19,558.38,189.98,504.44-263.4,504.44-263.4,3.01,5.73,5.85,11.45,8.56,17.36v.12c1.99,4.16,3.74,8.44,5.36,12.72,1.93,4.76,3.74,9.52,5.36,14.41,2.05,5.73,3.8,11.57,5.55,17.6.3.9.6,1.87.72,2.83,1.02,3.5,1.93,6.93,2.59,10.61.9,3.44,1.57,7.11,2.29,10.73.6,2.65,1.15,5.18,1.39,7.9.96,5.48,1.81,11.21,2.29,16.88.3.78.3,1.69.42,2.47.12,1.93.24,3.68.54,5.36.84,9.95,1.27,20.01,1.21,30.08.12,1.57.06,2.95.06,4.52Z"/></g></g></g></svg>
