<?xml version="1.0" encoding="UTF-8"?> <svg xmlns="http://www.w3.org/2000/svg" id="Layer_1" viewBox="0 0 680 680"><defs><style>.cls-1,.cls-2{stroke-width:0px;}.cls-2{fill:#fff;}</style></defs><rect class="cls-2" width="680" height="680"></rect><path class="cls-1" d="m321.24,219.88c1.46,3.98,4.31,5.37,6.5,4.38-4.84-.6-.93-8.95-7.23-8.95-.33,0-.66.07-.99.14-1.06-1.13-2.26-1.59-4.11-1.59-2.65,0-7.23,2.52-7.23,7.89,0,11.41,13.27,12.4,13.27,22.55,0,2.92-2.19,4.78-4.71,4.78-2.26,0-4.05-2.52-5.9-6.43-.93-1.86-2.85-4.44-4.91-7.1.66.4,1.33.66,1.99.66.69.07,1.37-.18,1.86-.66.47-.4.73-1.06.8-1.79v-.07c0-.93-.4-1.86-1.13-2.59-.66-.8-1.66-1.19-2.59-1.26-.73,0-1.39.27-1.86.66-.47.48-.73,1.12-.73,1.79v.14c0,.4.07.8.2,1.19-2.85-3.78-5.5-7.43-5.5-9.42,0-1.79,1.19-3.32,2.72-5.24.07.07.53.33.53.33l.4-.47c.53-.6,1.66-1.79,3.91-4.24l.14-.14.53-.6-1.39-1.13c.33-.86.73-1.79.93-2.85.46,1.86,1.39,3.05,2.72,2.65-.86-1.92.86-4.45-.27-9.09,1.06,1.79,2.65,2.72,3.78,2.39-2.98-2.59.86-6.24-2.98-11.87,1.26.46,2.12.2,2.65-.4-3.52-.53-1.92-4.97-8.03-6.57,1.52-.26,2.39-1.19,2.19-1.99-1.66,1.19-3.05-2.19-8.36-2.06-.33-1.99-2.19-4.11-4.25-5.11.4,1.52,0,2.92-.4,4.11l-17.31-17.05c-.53-.46-.8-.6-.93-.4-.14.2-.14.47.2.86l14.86,18.64c-1.13.4-2.19.86-3.38,1.26-.73.26-1.26.99-1.26,1.92-2.79,1.39-5.17,3.05-6.37,4.18-.93.8-1.66.99-.86,2.92.33.66-.66,2.45,1.53,1.19,1.39-.86,4.58-2.65,5.04-1.52.27.6-1.33,1.33-2.39,1.72-1.06.47-2.26,1.26-2.12,1.66.2.46,1.06,0,1.13.46.07.47.4.93.8.93.46,0,.99-.93,1.39-.6.33.27-.2,2.32-.53,2.85,1.66-.26,2.72-1.86,2.79-3.12.07-1.26.4-1.53.66-1.72.27-.14.53,1.39.2,2.26.93-.2,1.79-1.33,1.73-3.52.4-.33.86-.6,1.19-.6.6,0,1.73,1.52,3.32,1.52,2.92,0,4.58-2.39,4.78-3.51.14-.86.07-1.79-.47-2.45,1.06.86,1.39,2.19,1.39,3.18,0,4.18-7.36,6.17-10.35,9.02-.14.07-.27.2-.4.33l-3.45-1.33-.2.73c0,.07-.07.2-.2.66-.4,1.19-1.13,3.65-1.59,5.11l-.2.53.33.2c-2.06,2.72-3.71,5.77-4.11,8.89-.8-.86-1.59-1.53-2.52-2.26.14-.33.2-.66.2-1,.07-.93-.2-1.79-.8-2.45-.4-.46-.99-.73-1.59-.8-.62-.01-1.22.23-1.66.66-.14.07-.2.2-.33.33-.14-.14-.2-.27-.33-.33-1.19-.86-2.59-1.92-3.45-2.85-.33-.4-.73-.6-1.46-.6-.33,0-1.06-.07-1.59-.07-.46,0-.8.4-1.39.93-.26.27-1.06.86-1.92,1.53.4.46.8.86,1.26,1.33.2.27.4.53.66.8.2-.2.4-.33.6-.47.33-.27.8-.33,1.26-.33s1.06.27,1.53.93c.26.53,3.12,4.18,5.44,6.7-.27.14-.53.2-.8.33-.93.4-3.18.26-4.18.2-.99-.07-1.19-.33-1.86.73-.27.46-.6.93-.93,1.33-.33.4-.6.86.13,2.06,1,1.72,3.52,6.23,4.38,8.29.86,2.06,1.86,2.39,3.45,3.05,1.59.66,4.38,2.26,4.71,2.65l.07-1.59c-.47-.47-1.99-1.06-2.59-1.26-.6-.26-.73-.47,0-.47.66,0,2.59.66,3.98,1.26-.4-1.59-1.86-3.25-2.79-4.18-1.13-.4-2.32-.4-2.79,0,.07.33-.2.73-.67.73s-.8-.4-.6-.8c.14-.46.8-.59.66-1.52-.14-.86-1.26-.99-1.92-1.06-.95-1.42-1.83-2.88-2.65-4.38-.53-.86-.2-1.33.14-1.59.86-.73,2.59.33,6.1.53,1.26.14,2.79.2,4.38.26.46,4.11,2.12,7.96,7.76,9.35,2.79.73,5.7,2.79,6.7,5.44-11.41-.2-13.2,4.25-13.2,8.42,0,4.71,4.05,4.45,4.05,8.03,0,3.12-9.55,4.38-12.47,4.84-2.45.33-3.85.86-5.04,2.06-1.13,1.19-2.32,2.32-4.44,4.44,0,0,.86.2,1.79.14l1.59-2.06c.46-.73.86-1.33,1.13-1.26.33.07.14.6-.27,1.33l-1.33,2.26c5.64.4,5.97-1.73,5.97-2.52,0-.86-1.39-1.46-.59-1.99.86-.53,1.52-.2,2.19.6.6.73.86,1.39,2.39.8,0,0,12.2-5.11,13.73-5.77,1.39-.66,1-1.26.2-1.92-.93-.8-1.06-1.99-1.06-3.25,0-3.71,2.19-4.84,6.17-4.78-.07.6-.07,1.26-.07,1.79,0,5.77,8.69,11.41,11.08,11.41,1.06,0,2.45-.8,2.52,2.65.07,2.59.6,4.38.14,7.36-.46,2.92-1.33,3.38-3.05,4.64-1.79,1.26-3.45,5.17-4.24,5.97.8.53,1.66.6,2.32-1.33.53-1.53,1.19-2.65,1.86-3.05-.73,1.72-1.19,4.31-1.53,5.04,2.26.4,5.84-1.66,5.84-3.18s-1.26-1.46-1.26-2.52c0-.46.6-1,1.26-1,.86,0,1.59.73,1.66,1.06.93-.53,1.59-1.53,1.52-3.85,0-.86,0-1.79-.07-2.79.07.2.14.26.2.4.4.66,1.13,1.06,1.99,1.13.87.08,1.74-.16,2.45-.66.86-.6,1.53-1.39,1.66-2.32.07-.2.07-.4.07-.59,0-.47-.14-.93-.4-1.33-.33-.59-.93-.93-1.66-1.13-.86-.14-1.92.07-2.79.66-.8.53-1.39,1.26-1.59,2.12-.2-3.18-.46-6.1-.33-7.3.14-1.79.2-2.59-.4-2.85-.59-.27-1.26.73-2.12.73s-3.38-2.32-3.38-4.84,2.65-5.7,2.52-9.15c0-1.06.66-1.59,1.06-.6.53,1.13,1.26,2.72,2.45,4.05-.73,4.25,3.98,8.42,7.89,5.31-1.92.33-3.25-1.39-4.11-3.12.33.07.66.14,1.06.14.2,0,.4-.07.6-.07,1.33,1.72,5.64,1.59,6.77-2.65-.73.93-2.26,1.59-3.45,1.39,1.66-1.26,2.52-3.32,2.52-5.57,0-10.88-13.2-12.14-13.2-22.02,0-3.71,3.18-6.04,5.44-6.04.86,0,1.53.27,2.06.6-.86.93-1.33,2.26-1.26,3.85.33,7.83,13.13,7.43,13.33,11.21,1.39-5.7-8.16-3.98-8.49-11.61m-34.03-30.05c.66-1.19,0-2.98,2.19-2.98,1.06,0,1.99,1.06,3.25,1.52-2.06.14-3.91.6-5.44,1.46m-11.67,24.01c-.07.66-.27,1.19-.66,1.59-.2.14-.53.33-.86.33-.73-.07-1.33-.93-1.33-1.92v-.14c.07-.66.26-1.19.66-1.59.2-.14.53-.33.86-.33.4.07.66.26.8.46.4.4.6,1,.53,1.59m37.81,54.99c.07-.6.53-1.19,1.13-1.59.66-.4,1.33-.6,1.99-.47.26.07.66.2.93.6.27.4.2.8.2,1.06-.19.68-.61,1.26-1.19,1.66-1.13.66-2.39.6-2.92-.14-.27-.4-.2-.8-.14-1.13m-7.96-36.48c0-.27.07-.73.4-1,.33-.33.73-.4,1.06-.4.6.07,1.26.33,1.79.93.53.53.8,1.19.8,1.86-.07.27-.14.67-.46,1-.33.33-.73.33-.99.33-.66,0-1.33-.33-1.86-.86-.46-.53-.8-1.26-.73-1.86m-21.69-24.61c.59-1.92,1.79-5.77,1.79-5.77l1.99.8c-.6.26-1.33.8-1.92,1.39.47.2,1.26.2,1.79-.13l-.8,1.99c-.2-.33-.73-1.06-1.33-1.13-.4,1.59.66,2.19,1.39,2.59,1.19.6,1.99.73,2.32.14.4-.66-.4-1.66-1.39-1.19-.14-1.06.46-1.66,1.13-1.66.6,0,1,.53,1.19,1.19-.14-1.72.66-3.05,2.26-3.52.6,1.66.14,2.79-1.13,3.98.66-.27,1.39-.2,1.66.27.4.53.26,1.39-.67,1.86-.2-1.06-1.46-1.19-1.86-.46-.33.73.2,1.39,1.33,1.99,1.33.73,2.39.33,3.05-.86-.4-.13-1.19-.07-1.86.4l1.33-2.52c.07.4.26.99.86,1.46.2-.53.46-1.52.07-2.39l2.92,1.66c-.99.07-1.72.8-2.06,1.26.53.2,1.12.2,1.66,0l-1.52,2.45c.07-.86-.2-1.53-.6-1.86-.6,1.19-.46,2.32.8,3.12,1.13.66,1.99.8,2.45.14.4-.73-.33-1.72-1.39-1.39,0-1.06.6-1.59,1.33-1.53.53,0,.93.66,1.06,1.33.4-1.66,1.13-2.65,2.85-2.99.4,1.66-.4,2.99-1.92,3.78.66-.2,1.33-.07,1.59.4.33.6.2,1.39-.8,1.79-.14-1.06-1.39-1.26-1.79-.6-.33.53.14,1.19,1.33,1.92.73.47,1.72,1.06,2.92-.14-.4-.4-1.33-.53-1.66-.53l1.33-1.72c-.07.66.4,1.39.8,1.66.2-.86.33-1.73.26-2.32l1.66,1.33s-2.72,2.92-4.05,4.44l-18.37-10.61Zm17.91,45.1c-.73,1.06-1.99,1.39-2.79.86-.8-.6-.86-1.86-.14-2.92.73-1,1.92-1.39,2.72-.8.86.6.93,1.86.2,2.85m5.17-8.22c-.73,1.06-1.92,1.39-2.72.8-.86-.53-.86-1.86-.2-2.85.73-1.06,1.99-1.39,2.79-.86.8.6.86,1.92.14,2.92m-32.11-20.16c-.65.19-1.18.65-1.46,1.26-.73,1.46.14,3.25,1.86,4.11.93.4,1.99.53,2.85.2.73-.27,1.26-.66,1.53-1.26.26-.6.26-1.33.07-1.99-.36-.94-1.08-1.7-1.99-2.12-.93-.4-1.99-.53-2.85-.2m.86,4.31c-1.13-.53-1.73-1.66-1.33-2.52.2-.4.6-.6.86-.73.6-.2,1.33-.14,1.99.2.66.27,1.19.86,1.39,1.46.07.27.14.66,0,1.06-.22.32-.51.57-.86.73-.6.2-1.33.14-2.06-.2m20.82,31.51c-.66.6-1.06,1.59-1.06,2.65v.07c0,.99.33,1.99.99,2.59.47.53,1.13.86,1.79.86s1.26-.27,1.79-.8c.66-.6,1.06-1.59,1.13-2.65,0-.85-.25-1.68-.73-2.39-.5-.65-1.24-1.05-2.06-1.13-.7,0-1.37.29-1.86.8m1.72,4.98c-.46,0-.8-.2-1-.4-.46-.46-.66-1.19-.66-1.92s.27-1.39.73-1.86c.2-.2.6-.46,1.06-.4.93,0,1.66,1.06,1.59,2.32,0,.73-.27,1.46-.73,1.86-.2.2-.53.46-1,.4m-20.89-59.83c-1.39,1.06-1.79,2.92-.93,4.05.86,1.13,2.72,1.19,4.11.07.73-.53,1.26-1.39,1.33-2.19.07-.66-.07-1.33-.46-1.79-.33-.46-.93-.8-1.53-.86-.86-.14-1.79.2-2.52.73m-.27,2.59c0-.53.33-1.19.93-1.66.53-.4,1.13-.6,1.66-.53.27,0,.6.14.86.46.27.26.27.66.2.93-.07.53-.4,1.06-.93,1.46-.86.66-1.99.73-2.52.07-.14-.2-.2-.4-.2-.73m24.68,59.63c-.58.38-.99.98-1.13,1.66-.13.73.14,1.52.66,2.19.6.6,1.33,1.06,2.26,1.19.86.14,1.79,0,2.45-.33.8-.47,1.33-1.06,1.46-1.86.27-1.53-1.06-3.05-2.92-3.38-.99-.2-2.06,0-2.79.53m1.99,3.91c-1.26-.2-2.19-1.19-1.99-2.06.07-.38.28-.71.6-.93.53-.4,1.26-.53,1.99-.4,1.13.2,1.99,1.06,1.99,1.92v.2c-.2.93-1.33,1.53-2.59,1.26m14.53-8.03c-.04,2.45,1.91,4.48,4.37,4.52,2.45.04,4.48-1.91,4.52-4.37,0-.05,0-.1,0-.15,0-2.45-1.99-4.44-4.44-4.44s-4.44,1.99-4.44,4.44m1.13,0c0-1.83,1.49-3.31,3.32-3.32,1.79,0,3.25,1.53,3.25,3.32s-1.46,3.32-3.25,3.32c-1.81.02-3.3-1.44-3.32-3.25,0-.02,0-.05,0-.07m-101.62-25.34c.4-1.06-1.59-2.32-1.86-3.91-.2-1.59,0-3.05-1.79-5.17-1.79-2.06-7.96-8.62-9.82-10.75.47-.07,1.59-.26,2.72.8.66.6,1.99,1.86,3.18,3.05,1.66-4.11,3.65-7.23,6.57-10.48.33-.4.73-.8,1.06-1.19-1,.33-2.65.6-3.58,1.19-.14-1.79.07-3.25-1.19-4.38.46-2.52.07-5.57-5.57-9.35,2.85.73,4.58,3.32,6.76,1.33-1.92-.07-1.99-4.44-9.15-8.03,2.72-.07,4.84,4.38,8.03,1.86-2.99-.33-3.98-5.64-9.35-7.3,1.86.2,3.78,1.13,5.37-1.06-1.86.46-2.99-1.26-4.98-1.39.73-2.32.6-3.78-.2-5.5-1.46.07-2.85.53-3.91,1.33-.14-1.26-1.52-1.33-2.72-1.26.14.6.4,1.39-.27,1.46-.93.2-4.18,1.06-6.63,2.06-2.45.93-5.31,2.72-6.1,3.25-.53.33-.93-.46-1.26-.8-.86.73-1.72,1.66-1.06,2.65-1.39.14-2.92.46-4.18,1.52,0,1.59,1.33,3.12,3.25,3.98-3.32,3.32-.26,6.37-3.18,9.22,4.11.2,3.38-5.57,5.44-6.37-.2,4.05-2.45,4.78-2.45,9.09,0,2.39,1.39,4.91.14,6.43,3.45-.99,2.59-8.62,4.71-10.88.4,1.33.13,2.59-.27,3.85-1.26,3.58.14,8.42-1.79,10.02,3.52-.33,3.98-5.97,6.83-8.03-2.45,5.04-5.04,15.85-8.76,21.29-5.97,8.09-9.49,17.98-14.99,17.98-2.45,0-4.25-1.52-4.25-4.58,0-9.22,15.72-15.52,15.72-25.34,0-4.31-3.52-6.04-5.77-6.04-1.46,0-3.25.8-4.84,2.06-.55-.3-1.17-.46-1.79-.46-5.57,0-4.11,10.02-8.95,9.95,1.92,1.06,5.24-1.06,7.16-3.85-.8,6.5-10.15,4.78-9.42,12.6,1.33-6.1,16.19-5.24,16.19-14.53,0-.99-.53-1.92-1.26-2.59,1.13-.73,2.19-1,3.12-1,1.79,0,3.45,1.33,3.45,3.98,0,8.22-15.72,15.12-15.72,25.2,0,1.73.53,3.12,1.33,4.25-1.06.46-2.25.27-3.18-.86-.07,2.59,3.65,4.25,5.97,2.92.53.2,1.06.27,1.59.33-.66,1.92-3.05,2.52-4.31,2.39,3.85,3.05,10.55-.93,10.15-4.31,3.05-2.52,4.97-6.7,7.23-9.49-.2.66-.27,1.26-.4,1.92-2.26,4.11-4.31,7.76-4.91,13.13-.53,4.51-2.79,8.56-5.97,8.56-.66,0-1.79-.86-2.39-.46-.93.86,0,1.79,0,2.59,0,1.33-2.45,2.59-2.45,6.5,0,1.79.99,3.91.59,5.11,1-.53,2.39-2.19,2.92-4.38,1.06,5.24-2.26,4.97.13,9.62.33-1.52,1.86-2.12,2.79-1.52.93.66.53,1.06-.2,1.79-.66.66-1.33,4.18,1.86,3.98-.6-.4-.66-1.33.93-1.66,2.19-.47,2.79.53,5.11.53,1.46,0,1.86-1.86,2.99-1.86s1.13.93.73,1.52c1.86-.46,2.19-1.46,2.19-2.52,0-.99-.86-1.66-.2-2.06.66-.4,2.79.07,1.92,1.79,1.13-.2,1.73-1,1.73-2.32,0-1.39-1.53-2.12-2.99-1.92-.26-.8-1.46-1.26-2.65-1.26-2.52,0-2.12,2.06-3.91,2.06-2.79,0-5.57-3.71-5.57-9.88,0-3.32,3.58-4.18,6.1-5.24,2.52-1.06,6.97-3.78,9.62-8.22,2.06-3.52,2.12-7.3,1.86-11.81,3.52,1.99,3.98,4.97,3.98,7.1,0,2.72-1.46,3.85-2.59,4.38-.99.46-1.26.26-1.39.8-.14.73.33,1.13.8,1.33,1.26.66.99,1.92,1.39,3.25.33,1.33,1.53,3.45,3.52,4.97.2-.86.13-2.12,0-3.85,2.79,1.33.53,6.83,5.84,6.83-.93-.6-.66-2.06-.14-2.26.6-.2,1.26.4,2.32,1.79.99,1.46.73,1.33,3.25,1.33s1.39-.86,2.72-.86,1.19,1.53.46,2.65c2.26-.66,2.92-2.32,2.19-4.11,1.99-1.06,2.99.46,3.32,1.53,1.92-1.92,0-4.31-1.53-4.44.07-.73-.6-1.46-1.46-1.52-.8-.07-1.59-.14-2.52-.07-.86.07-1.39,1.39-2.45,1.39-3.32,0-9.95-6.04-9.95-8.62s6.3-4.18,6.3-8.22c0-5.31-5.17-7.1-9.55-10.48,1.53-1.79,6.1-2.19,8.69-.93.27-1.46,1.26-1.13,1.59-3.65.93,2.25-.07,4.18.93,5.11.73-1.06,2.59-.93,2.45-3.65.6,1.66-.73,4.31.6,5.5.2-1.46,1.06-1.72,1.59-1.72s1,.4,1,1.26c0,2.12-2.59,1.13-2.59,3.51,0,1,1.26,1.33,1.26,1.99,0,.6-1.06,1.66-2.25.8.4.93,1.19,1.72,2.32,1.72s2.39-.93,2.85-2.12c.6,1.53.14,3.18-.93,3.45,1.13.53,3.85,0,3.58-3.52,1.53.27,2.32,1.33,1.39,3.18,1.26-.33,2.45-.93,2.45-2.26,0-1.06-1.13-1.39-.66-2.72m-29.78-47.62c-1.46.14-1.39-1.26-3.91-1.86,1.79-.33,4.05-1.26,6.04-1.99.4,1.66-.27,3.71-2.12,3.85m10.21,10.81c-1.86.8-3.32-.86-3.65-1.92-.4-1.13-.66-2.06-.27-2.46.8-.8,1.06-1.39.6-2.39-.53-1.13-1.79-.6-3.05-.27.59-1.13.66-1.86-.2-1.79-1,.14-1,1.73-1.53,1.53-.53-.2-.26-1.13-.26-1.59.07-.66.46-.93,1.13-1.19l5.37-2.06c.66-.27,1.19-.4,1.66.07.33.4,1.19.86.93,1.33-.26.53-1.39-.6-2.19,0-.66.53-.07,1.06,1.13,1.39-1.13.66-2.39,1.13-1.99,2.32.33,1.06.93,1.26,2.06,1.33.6,0,1.06.86,1.53,1.92.53.99.66,2.92-1.26,3.78m.27-14.92c-1.39,1.13-3.32.07-4.18-1.39,1.99-.8,4.24-1.72,5.77-2.65-1.39,2.19-.4,3.12-1.59,4.05m-3.26-13.6c.4.6.59.93.59,1.39-.42-.22-.78-.54-1.06-.93l.2,2.39c.27-.46.53-.73.86-.86-.07,1.53-.73,2.19-1.26,2.32-.6.14-1.13-.33-1.19-.86-.14-.66.46-1.06,1.06-.46.14-1.46-.99-1.39-1.52-.8.6-1.39.33-2.32-.86-3.05-.8,1.26-.46,2.12.53,3.12-1-.46-1.79.33-1,1.39.2-.93.99-.73,1.19,0,.14.66-.46,1.46-1.46,1.79-1.46.4-1.99-.53-2.32-1.33.33-.2,1.06-.13,1.92.4l-.73-2.32c-.33.8-.8,1.13-1.39,1.39-.07-.66.46-2.06.46-2.06l-2.85,1.19s1.33.6,1.79,1.13c-.6.2-1.2.33-1.99,0l1.06,2.12c.27-.93.73-1.52,1.13-1.59.27.8.6,1.79-.73,2.52-1,.46-1.99.33-2.32-.2-.33-.66.07-1.39.86-.86-.14-1.33-1.33-1.33-1.66-.33,0-1.39-.33-2.19-1.79-2.59-.4,1.39.07,2.19,1.46,2.79-.73-.13-1.59.73-.53,1.66,0-.86.73-1,1.13-.4.27.4.27,1.06-.33,1.39-.46.33-1.33.33-2.45-.8.33-.13.66-.07,1.19.07l-1.53-1.86c.07.66.07,1.13-.07,1.46-.33-.4-.47-.73-.6-1.46l-1.13,1.06c1.06.66,2.32,1.72,3.85,3.78,1.59-.99,4.51-2.39,6.3-3.12,1.72-.73,4.78-1.72,6.63-2.12-.4-2.59-.2-4.18.13-5.44l-1.59.07Zm-11.88-3.19l.86,1.79.99-1.26c.07,0,.14.07.14.07.07.6.13,1.66.13,2.19,0,.73.6,1.33,1.33,1.33s1.33-.6,1.33-1.33c0-.46-.33-.93-.73-1.13-.53-.4-1.06-.93-1.46-1.33.07-.07.07-.14.07-.2l1.72.14-.66-1.79-1.26,1.06h-.13l-.07-1.92-1.79.66,1.19,1.46c-.07,0-.07.07-.07.14l-1.59.12Zm6.57,1.39c.4-.4.4-1.05,0-1.46-.4-.4-1.05-.4-1.46,0-.4.4-.4,1.05,0,1.46.4.4,1.05.4,1.46,0m2.32-1.72c.4-.4.4-1.05,0-1.46-.4-.4-1.05-.4-1.46,0-.4.4-.4,1.05,0,1.46.4.4,1.05.4,1.46,0m2.72.46c.4-.4.4-1.05,0-1.46-.4-.4-1.05-.4-1.46,0-.4.4-.4,1.05,0,1.46.4.4,1.05.4,1.46,0m.2,2.19c.46.4,1.06.4,1.46,0,.4-.4.4-1.05,0-1.46-.4-.4-1.05-.4-1.46,0-.4.4-.4,1.05,0,1.46m-11.61,1.86c.54.01.98-.42,1-.96,0-.01,0-.02,0-.04,0-.6-.46-1.06-.99-1.06-.58,0-1.05.45-1.06,1.03,0,.01,0,.02,0,.03,0,.6.46.99,1.06.99m-2.79.2c.6,0,1.06-.46,1.06-1,0-.58-.45-1.05-1.03-1.06-.01,0-.02,0-.03,0-.53,0-.99.46-.99,1.06.01.54.45.98.99.99m-.53,1.2c0-.53-.46-1-1.06-1-.54,0-.99.42-1,.96,0,.01,0,.02,0,.03,0,.6.4,1.06,1,1.06.58,0,1.05-.45,1.06-1.03,0,0,0-.02,0-.03m.33,2.79c0-.58-.46-1.05-1.03-1.06,0,0-.02,0-.03,0-.53,0-1,.46-1,1.06,0,.53.47.99.99.99.6,0,1.06-.46,1.06-.99m68.65,73.83c0,.07.14.2.27.2,1.66.47,3.51-.73,4.51-.46-1.26-.46-2.12.33-3.32.07.73,0,1.46-.13,1.53-.33-.6.33-2.19-.26-2.85.14l-.14.14c-.46.14-.93.4-.93.73,0,1.13,4.18.27,4.18.6s-.8.59-1.92.59c-.86,0-2.26-.53-4.11-.13.14-.33.53-.8.33-1,.2-.07.27-.13.33-.26-.14-.07-.27-.14-.33-.14.07-.14,0-.2-.07-.27,0,0-.07-.13-.07-.2-.07,0-.2-.13-.4-.2-.14-.14-.27-.14-.33-.14s-.2.07-.2.07c-.14,0-.2,0-.26.07-.07-.07-.14-.14-.27-.14-.07.14-.07.26,0,.46-.14,0-.33.4-.46.33l.14.14c-.14.2-.14.46-.27.46.07.07.07.14.14.2-.07.33-.14.73-.07,1-.27-.26-.66-.86-.93-.99-.2-.2-.2-.27-.2-.53,0-.2.07-.4.07-.6,0,0-.07-.14-.07-.2,0-.14-.2-.2-.33-.2.07.07.14.14.14.2-.07.07-.07.14-.07.14-.07.07-.07.14,0,.2v.14q0,.07-.07,0c0-.14-.07-.33-.2-.33h-.13v-.07c0-.14-.14-.27-.33-.07,0,0,.14,0,.14.07s-.07.14-.07.14c0,.13.14.2.33.2v.07c.07,0,.07.07.07.07q0,.07-.07,0c-.26-.13-.4.07-.4.14v.14c-.07.07-.14.2.07.33,0-.07,0-.2.07-.2h.07l.07.07s.07,0,.14-.07h.07c.07,0,.07.07.07.07q.07,0,0,0c-.14.2-.14.4.14.47,0,.33-.47.27-.4-.07-.26.4.2.73.46.53.07-.07.07,0,.07,0,0,.07.07.13.13.13,0,0,0-.07.07-.07,0,.14.07.2.2.27-.07-.07,0-.14,0-.14.07,0,0,.46.53.8.07.26.27.4.53.4.14.2.26.4.2.4s-.66-.07-.8,0c-.13.07-.33.2-.53.2l-.07.07c0-.07.07-.07.07-.07-.2,0-.33,0-.4-.07-.07-.14-.07-.2-.13-.27-.07-.14-.14-.2-.2-.2h-.14c-.07-.07-.27-.13-.4-.07.14.07.2.07.26.2-.07,0-.07.07-.07.07-.07.14,0,.2.33.33,0,0,.07.07,0,.07h-.2c-.14-.14-.14-.27-.33-.2l-.07.07h-.07c-.14-.07-.4.13-.27.33,0,0,.07-.14.2-.14v.07c.07.2.14.33.47.14.07-.07.07,0,.07,0-.14.14-.33.26-.14.4,0,0,0,.07.07.07v.07c-.07.2.2.33.26.33,0-.07-.13-.14-.07-.27h.07c.2-.07.14-.33.2-.4q.07,0,.07.07c0,.07.07.27.27.27s.26-.2.26-.33c.07.07.14.13.14.2,0,0,.14-.07.14-.14.07.14.07.26-.07.4.07,0,.27-.14.33-.4q.07.07.07.14h.47v.2s.07-.07.14-.07,0,.2.14.33c0-.53.33-.33.66-.6v.07c0,.07-.06.13-.14.14.14,0,.53-.14.53-.33,0-.07.2-.33.27-.93h.14c.46,0,.66-.33,1.13-.4-.14.14-.14.46-.14.66,0,.26.33.53.4.6v.07c-.14,0-.33,0-.33.07-.4.2-.4-.53-.8-.4l-.07.07c-.14,0-.4.2-.33.33.07-.07.14-.14.27-.14v.07c0,.07,0,.14.14.14.07,0,.07-.07.14-.07l.07.07c0,.14-.46-.07-.4.33,0,0,.07.07.07.14,0,.14.07.2.26.14,0,0-.13-.07-.07-.14h.07s.07,0,.07-.07q.07,0,.07.07v.2c0,.14.2.26.4.14-.07,0-.2,0-.2-.07.07-.07.14-.07.14-.07v-.14c0-.07.07-.07.07-.07h.07q.07,0,.07.07c.07.07.2.14.33.07.27-.07.07-.27.27-.33h.14c.2.07.33.07.4,0,.07-.14.07-.47-.2-.6-.07-.07.2-.86-.4-1.26.26.07,1.19.2,1.39,0,.26.07.6.26.6.26.07.07.07.14,0,.2-.27.14-.2.27-.4.27-.07-.07-.14-.2-.2-.2-.14-.07-.2,0-.2,0-.15-.06-.32,0-.4.14.07,0,.14-.07.27,0v.07s0,.07.07.14v.07c-.2-.07-.46-.07-.4.07,0,.07.07.07.07.14-.14.07-.14.26-.07.33,0-.07,0-.14.14-.14.07,0,.07.07.07.07.14.07.26-.14.4-.07-.14.07-.27.14-.2.26,0,0,0,.07.07.07-.07.14-.07.27.14.33,0,0-.07-.14,0-.2h.14c.27-.14.14-.33.2-.4.14-.14.27.14.47-.07,0,0,.07-.07,0-.2h.07c0,.07.07.14.2.07-.2-.14,0-.2.07-.33h.07c.07,0,.2,0,.26-.14-.13,0-.4-.2-.2-.27.26-.14.33-.26.2-.4-.2-.26-.66-.33-.73-.66h.47c1.39,0,2.32-.4,2.26-.8,0-.99-4.25.07-4.25-.66,0-.2.27-.33.6-.46m-3.12.14c.13.11.29.17.46.2-.2.07-.14.14-.26.14-.14,0-.2-.2-.2-.33m-.27-.14c-.07.07-.2.2-.33.07-.07-.07.07-.14-.07-.33.07.14.33.27.4.27m-.47,1c.07-.14.07-.2.14-.2s.14,0,.14-.07c.07-.14,0-.14-.14-.2.14,0,.14-.07.14-.14-.07,0-.2.07-.2,0l.07-.07q.07-.07.14,0l.4.14c0,.07.07.07.07.14,0,0,0,.14-.07.14,0,0,0-.14-.07-.14s-.07.07,0,.14c-.13,0-.2-.07-.26,0,0,.07,0,.14.07.2,0,.07,0,.14-.07.2,0,.07-.14.2-.27.14-.14-.07-.14-.2-.07-.27m5.1-6.96c0,.07.14.14.27.2,1.66.46,3.52-.73,4.51-.47-1.26-.46-2.06.33-3.32.07.73,0,1.46-.13,1.52-.33-.6.33-2.19-.26-2.85.14,0,.07-.07.07-.07.14-.93-.07-1.66-.07-1.66.53,0,1.26,3.38.53,4.51.53.99,0,.93.14.93.33,0,.26-1.26.33-1.86.33-.93,0-3.71-.47-5.37-.14.14-.27.46-.6.27-.8.14-.07.27-.2.27-.33-.09-.08-.21-.13-.33-.14.07-.07,0-.2-.07-.27,0,0-.07-.14-.07-.2-.07-.07-.2-.14-.4-.26-.2-.07-.33-.07-.4-.07,0-.07-.2,0-.2,0-.07,0-.2,0-.2.14-.14-.14-.2-.14-.33-.14-.07.14-.07.2,0,.46-.2,0-.33.33-.46.33.07.07.07.14.14.14-.14.27-.2.53-.33.53.07.07.07.14.14.14-.07.2-.07.33-.07.46h-.2c-.2-.07-.33,0-.66-.2-.26-.2-.26-.33-.26-.53,0-.27.07-.47.07-.66,0,0,0-.14-.07-.2,0-.14-.2-.27-.33-.2.07,0,.13.14.13.2-.07.07-.07.14-.07.14-.07.07-.14.14,0,.2v.2h-.07c-.07-.2-.14-.4-.27-.4h-.07v-.07c0-.14-.2-.27-.4-.07.07,0,.14,0,.14.07v.14c0,.2.07.26.27.26h.07v.07q0,.07,0,0c-.33-.07-.4.07-.4.2,0,0-.07.07,0,.07-.14.07-.14.27.07.33,0,0-.07-.13,0-.13s.07,0,.07-.07c0,.07.07.07.07.13q.07,0,.2-.07t.07,0s.07,0,.07.07c.07,0,0,0,0,0-.2.2-.13.4.14.47v.07c0,.33-.46.27-.46-.07-.27.4.2.66.53.46h.07c0,.07.07.14.14.14,0,0,0-.07.07-.07v.07c.07.07.07.2.2.2,0-.07,0-.14.07-.14s0-.14.46.07q.07.14.2.2l.27-.07c0,.26.07.6,0,.6s-.53,0-.73.07c-.26.14-.8.33-.99.07-.07-.07-.07-.14-.14-.27,0-.07-.14-.14-.2-.14h-.14c-.07-.14-.26-.14-.4-.07.07,0,.2,0,.26.14-.07.07-.07.14-.07.14-.07.07-.07.2.33.33,0,0,.07.07,0,.07s-.13,0-.2-.07c-.13-.07-.13-.26-.33-.14,0,0-.07,0-.14.07v-.07c-.2,0-.4.2-.33.4.07,0,.07-.14.2-.14,0,.07.07.07.07.07,0,.2.14.4.46.14.07-.07.07,0,.07,0-.14.14-.33.33-.14.47l.07.07v.07c-.07.2.2.33.27.33,0-.07-.14-.2-.07-.33l.07.07c.2-.14.14-.33.27-.4.07.07.07.33.26.33.27-.07.33-.26.33-.33v-.07c.07.07.14.14.14.27,0,0,.14-.07.14-.14.07.07.07.2-.07.4.07-.07.33-.14.33-.4.07,0,.07.07.13.07.07.07.2.07.4,0h.07v.26s.07-.14.14-.14c0,0,0,.27.14.33,0-.53.47-.4.86-.6q0-.07,0,0c0,.07-.07.14-.14.2.33.2.73-.33.86-.6.07,0,.07-.07.14-.14,0,.07,0,.14-.07.2.33,0,.26-.27.46-.27,1.06.07.27-.93,1.99-.6.17-.01.34-.08.46-.2-.14.2-.14.73.14.73.13.07.33.13.4.2.07.07,0,.07,0,.07-.14,0-.26,0-.33.07-.4.27-.4-.6-.8-.4,0,0-.07,0-.14.07-.14,0-.33.2-.33.33.07,0,.14-.14.27-.14v.07c0,.07,0,.14.13.14h.2c0,.2-.46-.07-.4.33l.07.14c0,.14.14.26.33.2-.07,0-.13-.06-.14-.14h.14v-.07h.13c0,.07-.07.07-.07.14,0,0,.07.07.07.14,0,.14.2.26.4.14-.07,0-.2,0-.2-.14h.14v-.2h.14c.07-.07.07,0,.14,0,0,.14.14.2.27.14.26-.07.07-.33.26-.4h.2c.2.07.53.07.53,0,.07-.14.07-.53-.2-.66-.14-.07.07-.2-.07-.4.2.07.47.2.8.2.53,0,.8-.07,1.13-.27.33-.2.66-.07.73-.07s.14.07.07.14c-.14.33-.07.33-.14.46-.14.14-.33.07-.53,0-.07,0-.14.07-.14.07-.2.07-.4.2-.4.4,0-.07.14-.14.27-.14v.07c-.07.2.2.26.33.07,0,0,.07,0,.07.07-.2.07-.47.26-.26.4h.07c0,.13,0,.26.14.26q0-.07.07-.2h.14c.14,0,.14-.26.27-.33q.07-.07.07,0c-.14.14-.2.33-.07.33l.07.07c.07.14.14.2.33.07l-.14-.07.14-.14c.2-.33-.07-.33-.07-.47.07-.2.33-.07.46-.4,0-.07,0-.14-.14-.2.14,0,.2,0,.26-.14-.26.07-.14-.14-.14-.27q0-.07.07-.07c.07-.07.14-.14.14-.33-.07.14-.33.2-.33,0,0,0,0-.14-.2-.07-.4,0-.93-.07-1.66-.14-.07,0-.07-.07,0-.07.73-.07,2.19-.14,2.19-.6,0-.4-.07-.66-1.33-.66s-4.18.46-4.18-.26c0-.33.6-.33,1.26-.27m-4.18-.07c-.07.07-.2.2-.27.07-.13-.14,0-.14-.13-.33.13.07.33.2.4.26m.27.73c-.07,0,0-.14-.14-.14-.07,0,0,.07,0,.14-.07,0-.2-.07-.2.07q-.07.07,0,.2c.07,0,0,.07,0,.2-.07.07-.14.2-.33.14-.14-.07-.14-.27-.07-.33.07-.07.07-.14.14-.14s.14-.07.2-.13c0-.07-.07-.14-.2-.2.14,0,.2-.07.14-.07-.07-.07-.2,0-.2-.07,0,0,.07-.07.14-.07,0-.07.07-.07.07,0l.4.2c.07,0,.13,0,.07.07,0,.07.07.14,0,.14m.26-.27c-.2,0-.26-.2-.2-.33.07.07.33.14.46.2-.2.07-.14.14-.27.14m9.57-3.8l.07-.07c.07,0,.14-.14.14-.33-.14.14-.4.27-.4,0,0,0,0-.14-.26-.14-.4.07-.8,0-1.53-.07-.07,0-.07-.07,0-.07.73-.07,2.19-.2,2.19-.66,0-.4-.46-.66-1.79-.66s-5.5.47-5.5-.27c0-.47,1.39-.33,2.45-.26,0,.07.14.13.26.2,1.73.47,3.71-.8,4.71-.53-1.33-.46-2.19.33-3.51.07.8,0,1.59-.14,1.66-.33-.6.4-2.25-.27-2.98.2q-.07,0-.14.07c-1.26,0-2.79-.14-2.79.6,0,1.33,4.64.53,5.77.53s1.39.14,1.39.33c0,.33-1.13.4-1.72.4-1.06,0-5.44-.6-7.16,0,.07-.33.53-.8.26-.99.2-.07.33-.2.33-.33-.14-.14-.2-.2-.33-.2,0-.07-.07-.14-.07-.2-.07,0-.07-.2-.14-.26-.07-.07-.2-.14-.4-.27-.2-.07-.33-.07-.4-.07,0-.07-.2,0-.2,0-.14,0-.27,0-.27.14-.07-.14-.2-.14-.26-.14-.07.14-.14.27-.07.46-.14,0-.33.4-.47.33.07.14.07.2.14.2-.14.2-.2.53-.33.53.07.14.14.2.2.2v.4l-.27-.07h-.2c-.07-.07-.14-.07-.2-.07-.2,0-.4-.33-.73-.6-.27-.14-.27-.27-.27-.53s.07-.46.07-.66c0,0,0-.14-.07-.2,0-.14-.2-.27-.33-.2.07,0,.14.07.14.2l-.14.14c0,.07-.07.14,0,.2l.07.07q0,.07-.07.14c-.07-.2-.14-.4-.27-.47h-.14c0-.2-.2-.33-.4-.14.07,0,.13.07.2.07-.07.07-.07.2-.07.2,0,.2.13.26.33.26.07,0,.07.07.07.07q0,.07-.07.07c-.27-.14-.4,0-.4.14v.07c-.14.14-.14.27.07.4,0-.07,0-.14.07-.2h.07l.07.07s.07,0,.14-.07h.14s0,.07.07.07v.07c-.2.2-.2.4.07.4q.07.07.07.14c0,.33-.53.26-.46-.14-.33.47.2.8.53.53q.07,0,.07.07c0,.07.07.14.14.14,0-.07,0-.14.07-.14v.07c.07.14.07.26.2.26,0-.07,0-.13.07-.13s.33.53.86.8c-.07,0,.2-.14.33-.2,0,.14.07.2.13.26l.14-.07c-.07.27.27.53.2.53s-.6-.07-.8,0c-.2.2-.86.4-.99.14-.07-.14-.07-.2-.14-.33-.07-.07-.14-.14-.2-.14h-.14c-.12-.12-.31-.15-.46-.07.14.07.2.07.27.2l-.07.07c-.07.14,0,.27.4.4v.07c-.07,0-.14,0-.2-.07-.2-.07-.2-.27-.4-.14h-.14c-.2,0-.47.2-.33.4,0-.07.07-.14.2-.2,0,.07.07.14.07.14,0,.2.13.4.53.14,0-.07,0,0,0,0-.07.2-.33.33-.14.46l.07.07v.07c-.07.2.2.4.33.4-.07-.07-.14-.2-.14-.4.07.07.14.07.14.07.2-.07.14-.33.2-.4h.07c0,.14.07.33.26.33.27,0,.33-.2.33-.33.13,0,.13.14.13.2.07,0,.14-.07.2-.14,0,.07,0,.27-.13.4.13-.07.33-.14.4-.4q.07.07.07.14c.14,0,.27,0,.46-.07.07,0,.07.07.07.07v.2s.07-.07.14-.07,0,.2.14.33c.07-.6.33-.33.73-.6q.07,0,.07.07c-.07.07-.14.14-.2.14.14.14.66-.2.66-.47,0,0,.2-.07.4-.07.4,0,.33-.26.46-.26,2.19.26.93-.93,3.52-.66.13,0,.2-.2.26-.26-.14.26-.14.73.14.8.13,0,.4.07.46.2-.14.07-.33.07-.4.13-.4.27-.4-.59-.8-.46-.07.07-.13.07-.13.14-.2,0-.4.2-.33.33,0-.07.14-.14.27-.14v.07c0,.07,0,.14.14.14h.2c0,.2-.53-.07-.4.4,0,0,.07.07.07.14,0,.14.07.26.33.2-.07-.07-.14-.14-.14-.2h.14s.07,0,.07-.07q.07,0,.07.07s-.07,0-.07.07l.07.14c0,.2.2.33.4.2,0,0-.2-.07-.2-.14.07-.07.14-.07.14-.07v-.14c0-.07.07-.07.07-.07h.14q.07,0,.07.07c.07.07.2.14.33.07.26-.07.07-.33.26-.33.07,0,.14-.07.2,0,.2,0,.53,0,.6-.07.07-.14,0-.53-.2-.66-.13-.07,0-.27-.13-.46.2.14.46.2.8.2.66,0,.86-.07,1.13-.26.33-.14.66-.07.73-.07s.14.07.14.2c-.14.26,0,.33-.07.46-.07.14-.33,0-.53,0-.07,0-.2.07-.2.07-.14.07-.33.2-.33.33.07,0,.14-.07.26-.14v.07c0,.26.27.33.4.2,0-.07.07,0,0,0-.07.14-.33.33-.14.4,0,0,.07,0,.07.07,0,.14.07.27.2.27-.07-.07-.07-.14,0-.27h.14c.14,0,.07-.26.27-.33-.07.14-.07.33.07.4h.07c.07.14.2.2.4.14-.07-.07-.14-.07-.2-.14l.14-.14c.13-.33-.14-.33-.14-.46,0-.2.33-.07.33-.4,0-.07,0-.14-.14-.2.14,0,.2,0,.27-.14-.27,0-.14-.2-.2-.33m-9.62-2.52c.07.14.4.2.53.27-.26.07-.2.14-.33.14-.2,0-.2-.2-.2-.4m-.33-.14c-.07.14-.2.26-.33.14-.14-.14,0-.14-.14-.4.14.07.4.26.46.26m-.46,1.06c0-.07.07-.14.14-.14s.14,0,.14-.14c.07-.07,0-.14-.14-.2.14,0,.14-.07.14-.14-.14,0-.2.07-.2,0-.07,0,.07-.07.07-.07q.07-.07.14,0l.4.14c.07.07.14.07.14.14s0,.14-.07.14c0,0,0-.14-.07-.14s-.07.07-.07.14c-.07,0-.2-.07-.2.07-.07.07-.07.14,0,.2v.2c-.07.14-.2.2-.33.14-.14-.07-.14-.2-.07-.33h0Zm-8.67-8.7c0-.4-.4-.66-1.72-.66s-5.5.46-5.5-.27c0-.46,1.39-.27,2.45-.27,0,.07.14.14.26.2,1.73.46,3.52-.66,4.78-.26-1-.86-2.26.07-3.52-.2.73,0,1.53-.14,1.59-.33-.6.4-2.26-.27-2.99.13l-.14.14c-1.26,0-2.79-.2-2.79.6,0,1.33,4.64.53,5.77.53s1.39.14,1.39.33c0,.33-1.13.4-1.79.4-.99,0-5.37-.59-7.16-.07.14-.27.53-.73.33-.93.2-.07.33-.2.33-.33-.14-.14-.26-.14-.33-.2.07-.07-.07-.14-.14-.2,0,0,0-.2-.07-.27s-.2-.13-.4-.26c-.2-.07-.33-.07-.4-.07-.07-.07-.2,0-.2,0-.14,0-.27,0-.27.14-.07-.07-.17-.12-.27-.14-.13.14-.13.27-.07.47-.2,0-.33.4-.46.33,0,.14.07.2.14.2-.14.27-.2.53-.33.53.07.07.07.14.14.14,0,.14-.07.33-.07.46l-.14-.07h-.2c-.07-.07-.14-.07-.2-.07-.27,0-.4-.4-.73-.6-.26-.14-.26-.27-.26-.53,0-.2.07-.47.07-.66,0,0-.07-.14-.07-.2-.07-.14-.27-.27-.33-.27.07.07.13.14.13.27l-.13.14c-.07.07-.07.14.07.2v.2c-.07.07-.07,0-.07,0-.07-.2-.14-.4-.27-.46h-.14c0-.2-.2-.33-.4-.14.07.07.14.07.2.07-.07.07-.07.2-.07.2,0,.2.14.27.33.27,0,.07.07.07.07.07q0,.07-.07.07c-.26-.14-.4,0-.4.13v.14c-.14.07-.14.2.07.33,0-.07-.07-.2.07-.2.07,0,.14.07.14.07,0,0,.07,0,.14-.07h.07c.07,0,.07.07.14.07v.07c-.2.2-.2.4.07.4l.07.07c-.07.4-.53.33-.53-.07-.27.46.26.8.6.6q.07-.07.07,0c0,.07.07.14.13.14q0-.07.07-.07c0-.07,0,0,0,0,0,.14.07.2.2.27,0-.07,0-.2.07-.2s.33.53.86.86c.14-.07.27-.07.33-.2,0,.07,0,.13.07.13.07.27.2.6.14.6-.07,0-.93-.07-1.06.07-.26.13-.86.33-1.06.07-.07-.07-.07-.14-.14-.27-.07-.14-.14-.2-.2-.2h-.14c-.12-.12-.31-.15-.46-.07.14,0,.2.07.27.2l-.07.07c-.07.14,0,.27.4.4-.07.07-.14.07-.2,0-.2-.14-.2-.27-.4-.2,0,.07-.07.07-.07.07h-.07c-.2,0-.47.2-.33.4,0,0,.07-.14.2-.2.04.04.06.08.07.14,0,.2.14.4.53.14,0-.07,0,0,0,0-.07.2-.33.33-.14.46l.07.07v.07c-.07.2.2.4.33.4-.07-.07-.14-.2-.14-.4.04.04.08.06.14.07.2-.07.14-.33.2-.4h.07c0,.14.07.33.33.33.2,0,.33-.2.27-.33,0,0,0-.07.07,0,.07,0,.14.14.07.2.07,0,.14-.07.2-.14,0,.07.07.27-.14.4.14,0,.33-.14.4-.4q.07.07.07.14h.07c.07,0,.2,0,.47-.07v.27c.07,0,.07-.07.13-.07s0,.2.14.33c.07-.6.73-.27,1.13-.53,0,0,.07,0,0,0,0,.07-.07.2-.14.2.14.07.33-.07.46-.2q0,.07-.07.07l.66-.26v-.2h.2c.4,0,.33-.33.46-.27,2.19.27.93-.93,3.51-.73.14.07.2,0,.27-.14-.14.26-.14.66.14.73.14,0,.4.07.46.2v.07c-.14,0-.33,0-.4.07-.4.27-.4-.6-.8-.47-.07,0-.13.06-.14.14-.2,0-.4.14-.33.33,0,0,.14-.13.27-.13v.07c-.07.07,0,.14.14.14h.2c0,.2-.53-.07-.4.4,0,0,0,.07.07.14,0,.14.07.27.33.2-.07-.07-.14-.14-.14-.2h.14l.07-.07s.07,0,.07.07c0,0-.07,0-.07.07l.07.14c0,.2.2.33.4.2,0,0-.2-.07-.2-.14.07,0,.14-.07.14-.07v-.14l.07-.07h.14q.07,0,.07.07c.09.08.21.13.33.14.26-.14.07-.4.26-.4.07-.07.14-.07.2,0,.2,0,.53,0,.6-.07.07-.14,0-.53-.2-.66-.2-.07,0-.26-.14-.46.2.14.46.2.8.2.66,0,.8-.07,1.06-.2.33-.2.67-.14.73-.14s.13.07.13.2c-.07.26.07.33-.07.46,0,.14-.33,0-.46,0s-.2.07-.2.07c-.14.07-.33.2-.33.4.07-.07.17-.12.27-.14.07.27.27.33.4.2.07-.07.14,0,.07,0-.14.07-.33.33-.14.4l.07.07c0,.14.14.27.2.27,0-.07,0-.14.07-.27h.07c.13,0,.07-.27.2-.33h.07c-.07.14-.07.33.07.4h.14c0,.13.14.2.33.13-.07,0-.13-.06-.14-.13,0-.07.07-.14.07-.14.13-.33-.2-.33-.2-.46,0-.2.33-.07.33-.4,0-.07,0-.2-.14-.2.07,0,.2,0,.2-.14-.2,0-.14-.2-.2-.33,0,0,0-.07.07-.07.07-.07.14-.14.07-.33-.07.14-.33.27-.33,0,0,0-.07-.14-.27-.14-.4.07-.73,0-1.46-.07.73-.07,2.12-.26,2.12-.73m-9.75-1.13c.16.11.34.17.53.2-.27.07-.2.2-.33.2-.2,0-.2-.26-.2-.4m-.33-.13c-.07.13-.2.2-.33.07-.14-.07,0-.14-.14-.33.14.07.4.27.47.27m-.47,1.06c0-.07.07-.14.14-.14.07,0,.13-.06.14-.14.07-.14,0-.14-.14-.2.14,0,.14-.07.14-.14-.07-.07-.2.07-.2,0-.07-.07,0-.07.07-.14s.07,0,.14,0l.4.2c.07.07.14.07.14.14s0,.14-.07.14c0,0,0-.14-.14-.14v.14c-.07,0-.2-.07-.2,0-.07.14-.07.2,0,.2v.26c-.07.07-.2.2-.33.14-.14-.07-.14-.26-.07-.33m11.17-6c0-.46-.53-.73-1.92-.73s-4.51.53-4.51-.26c0-.4.6-.33,1.33-.27.07.07.14.07.33.14,1.79.53,3.91-.4,5.04-.14-1.33-.99-2.39.07-3.78-.26.8,0,1.13-.2,1.13-.4-.6.4-1.79-.27-2.52.2-.07.07-.14.07-.14.13-1-.07-1.79-.07-1.79.6,0,1.39,3.71.59,4.91.59s1.46.14,1.46.33c0,.33-1.19.46-1.86.46-1,0-4.11-.6-5.97-.2.13-.33.46-.66.33-.93.14-.07.26-.2.26-.33-.09-.08-.21-.13-.33-.14.07-.14,0-.2-.14-.27,0-.07,0-.2-.07-.26-.11-.12-.25-.21-.4-.27-.2-.14-.33-.14-.46-.14l-.2.07c-.14-.07-.2-.07-.27.07-.09-.08-.21-.13-.33-.14-.07.2-.07.27,0,.53-.2,0-.4.4-.53.4l.13.14c-.13.27-.2.6-.33.6.07.14.2.2.2.2v.53l-.33-.14h-.14.07l-.14-.07c-.2-.14-.4-.4-.6-.53-.33-.14-.33-.27-.27-.6,0-.2.14-.46.14-.66-.07-.07-.07-.14-.07-.2-.07-.2-.26-.33-.4-.27.07.07.14.07.14.27,0,0-.07.07-.07.14-.07.07-.13.14,0,.2v.07s0,.07-.07.13c-.07-.2-.14-.46-.27-.46h-.14c0-.2-.2-.33-.4-.14.07,0,.14,0,.2.07-.07.07-.07.2-.07.2-.07.2.07.2.27.26h.07v.07c.07.07,0,.07,0,.07-.33-.2-.47,0-.47.14v.14c-.14.07-.14.27.07.4,0-.07,0-.2.07-.2,0,0,0-.07.07-.07,0,.07.07.07.07.07,0,.07.07,0,.2,0q0-.07.07,0h.07q.07.07,0,.07c-.2.27-.2.46.07.46.07,0,.07.07.07.07-.07.4-.6.33-.53-.07-.27.46.2.8.6.6,0-.07,0,0,.07,0,0,.07,0,.14.07.14,0,0,.07-.07.14-.07,0,.14.07.26.2.26-.07-.07,0-.14.07-.14s.2.27.53.47c.26.14.46.4.6.27,0,.26.26.53.2.53s-.8,0-1,.07c-.27.14-.93.4-1.13.14-.07-.14,0-.2-.14-.33,0-.14-.13-.2-.2-.2h-.14c-.12-.12-.31-.15-.47-.07.07.07.2.07.26.2,0,.07-.07.13-.07.13-.07.07,0,.2.4.33,0,0,.07.07,0,.07-.07.07-.14.07-.2,0-.2-.14-.2-.33-.4-.2,0,0-.07.07-.14.07-.2-.07-.46.2-.4.4.07-.07.14-.14.26-.2,0,.07,0,.14.07.14,0,.2.07.4.53.13.07-.07.07,0,0,0-.07.2-.33.33-.14.46,0,0,.07.07.07.14-.07.26.2.47.33.4,0-.07-.14-.14-.07-.33h.07c.2-.07.14-.33.26-.4h.07c0,.13,0,.4.27.33.27,0,.33-.2.33-.33.14,0,.2.13.14.26l.2-.2c.07.14.07.27-.07.4.07,0,.33-.14.33-.4l.14.14c.07,0,.27.07.46,0,.07-.07.07,0,.07,0v.27c0-.07.07-.14.14-.14s0,.26.14.4c.07-.66.4-.4.8-.66q.07,0,0,.07c0,.07-.07.14-.14.2.4.07,1.13-.6,1.19-.86.2,0,.33-.07.4,0,1.26.07.4-1.13,2.39-.8.14,0,.33-.14.46-.2-.14.27-.14.8.14.86.14,0,.33.07.46.2h-.07c-.14.07-.27.07-.33.14-.46.26-.46-.66-.86-.46-.07,0-.14.07-.14.07-.2,0-.47.2-.4.4.07-.07.14-.14.27-.14v.07c0,.07.07.14.2.14h.2c0,.2-.53-.07-.46.4l.14.14c-.07.14.07.26.33.2-.07,0-.13-.06-.14-.14h.14s.07,0,.07-.14c0,0,.07,0,.07.07,0,0-.07.07-.07.14,0,0,.07.07.07.14,0,.13.2.33.46.13-.07,0-.2,0-.26-.13h.14c.07-.07.07-.14.07-.2h.14c.07-.07.07,0,.14,0,0,.14.13.2.33.14.26-.07.07-.33.26-.4.07,0,.14-.07.2,0,.2.07.6,0,.66-.07.07-.14,0-.53-.27-.66-.13-.14,0-.27-.13-.47.26.07.53.2.93.2.6,0,.8-.14,1.06-.33.33-.14.66-.07.8-.07.07.07.14.07.14.2-.07.33,0,.33-.07.53-.07.14-.33,0-.53,0-.14,0-.2.07-.2.07-.13.07-.33.2-.33.4.08-.08.17-.15.27-.2v.07c.07.26.33.33.47.2,0-.07.07,0,0,0-.07.14-.33.33-.14.4,0,0,.07.07.14.07-.07.13.07.26.2.33-.07-.07-.07-.14,0-.27h.13c.14,0,.07-.33.2-.4h.07c-.07.2-.14.4.07.4l.07.07c.07.14.2.2.4.14,0-.07-.14-.14-.14-.2,0,0,.07-.07.07-.14.14-.33-.2-.33-.2-.46,0-.2.33-.07.33-.4,0-.07,0-.2-.14-.27.14,0,.2,0,.27-.14-.27.07-.2-.14-.2-.33v-.07c.07,0,.14-.14.14-.33-.14.14-.4.27-.46,0,0,0,0-.14-.2-.14-.46.07-.73,0-1.53-.14.86,0,2.26-.2,2.26-.73m-8.76-1.19c.16.11.34.17.53.2-.26.07-.2.14-.33.14s-.2-.2-.2-.33m-.33-.2c-.07.13-.2.26-.33.13-.14-.13,0-.2-.2-.4.2.13.46.26.53.26m-.53,1.13c.07-.07.07-.13.13-.13.14,0,.14-.07.2-.14,0-.07-.07-.14-.2-.2.14-.07.2-.14.14-.14-.07-.07-.14,0-.2,0,0-.07.07-.14.14-.14,0-.07.07,0,.14,0l.4.2c.07,0,.14.07.14.14s0,.14-.07.14-.07-.14-.14-.14-.07.07,0,.14c-.14,0-.2-.07-.26.07-.07.07,0,.14.07.2,0,0,0,.13-.07.2,0,.13-.14.26-.33.2-.14-.13-.14-.26-.07-.4h0Zm7.6-5.15c1.39,0,2.12-.46,2.12-.93,0-1.53-3.91-.6-3.91-1.53,0-.2.14-.33.26-.46h.07c1.99-.14,1.99-1.52,3.45-1.79-1.72-.26-1.99,1.06-2.72,1.13.4-.2.53-.66.53-.8-.33.47-1.13.53-1.52,1.06-.07.07-.14.2-.07.26-.26.14-.46.33-.46.6,0,1.46,4.05.47,4.05,1.53,0,.4-.73.66-1.79.66-.86,0-1.46-.6-2.98-.2,0-.26.53-.73.33-.99.14-.07.27-.2.27-.27-.07-.14-.2-.14-.33-.14.07-.07,0-.2-.07-.27,0,0,0-.14-.07-.2-.1-.08-.21-.15-.33-.2-.2-.14-.33-.14-.4-.14l-.2.07c-.07-.07-.2-.07-.2.07-.07-.07-.16-.12-.26-.14-.07.14-.14.27-.07.4-.14.07-.27.4-.4.4.07.07.07.14.14.14-.14.2-.2.47-.33.47.07.07.07.14.14.14-.12.3-.19.61-.2.93h-.07c-.05-.12-.15-.21-.27-.27-.26-.14-.26-.26-.2-.46.07-.2.2-.4.2-.6l-.07-.14c0-.14-.2-.27-.26-.2,0,0,.07.07.07.2-.07,0-.07.07-.14.07,0,.07-.07.14,0,.2v.14c-.07.07-.07,0-.07,0,0-.14-.07-.33-.2-.33h-.07v-.07c0-.14-.14-.26-.4-.07.07,0,.14,0,.14.07l-.07.14c0,.14.14.2.27.2h.07v.14c-.26-.14-.4,0-.46.14v.07c-.14.07-.14.2,0,.33,0-.07,0-.14.14-.2,0,.07.07.07.07.07,0,0,.07,0,.2-.07h.07c0,.07.07.07.07.07v.07c-.2.14-.2.33.07.4-.07.33-.53.27-.47-.07-.33.4.07.66.47.46h.07q0,.13.07.13s.07-.07.14-.07v.07c0,.07,0,.2.14.2,0-.07,0-.13.07-.13s.14.26.33.46c-.26.2-.8.33-.86.33s-.53-.07-.66,0c-.27.14-.8.33-1,.07-.07-.07,0-.14-.07-.26-.07-.07-.14-.14-.2-.14h-.14c-.07-.07-.33-.14-.4-.07.07.07.2.07.27.14-.07.07-.07.14-.07.14-.07.07,0,.2.33.33v.07c-.07,0-.14,0-.2-.07-.14-.07-.14-.27-.33-.14,0,0-.07,0-.14.07-.14-.07-.4.14-.27.33,0-.07.07-.14.14-.2.04.04.06.08.07.14,0,.2.14.33.46.07.07,0,.07.07.07.07-.14.14-.33.27-.14.4,0,0,0,.07.07.07v.07c-.07.2.14.33.26.33-.07-.07-.14-.14-.14-.33.07,0,.14.07.14.07.2-.07.07-.33.2-.4l.07.07c0,.07.07.26.27.26.2-.07.26-.2.26-.33.07.07.14.14.14.2,0,0,.14-.07.14-.14.07.07.07.27-.07.33.07,0,.27-.07.33-.33,0,.07.07.07.07.14.07,0,.2,0,.46-.07v.27s.07-.14.14-.14c0,0,0,.27.07.4.07-.53.4-.33.66-.6q.07,0,.07.07s-.07.14-.13.14c.13,0,.4-.14.4-.27,0-.07.14-.14.2-.2.14,0,.33-.07.4-.2,0,.07.07.27,0,.27.33.07.73-.4.86-.4.73-.14-.46-.73,1.06-.6.17,0,.34-.08.46-.2-.13.27-.13.73.07.73.14,0,.33.14.4.2-.14.07-.26.07-.33.13-.4.2-.4-.53-.73-.4,0,0-.07.07-.14.07-.14,0-.33.2-.33.33.07-.07.14-.14.27-.14v.07c0,.07,0,.14.14.14h.2c0,.14-.46-.07-.4.33,0,0,.07.07.07.14s.14.2.33.14c-.07,0-.13-.06-.14-.14h.14v-.07h.07v.27c0,.14.2.26.46.14-.1-.02-.19-.06-.27-.14h.14c.07-.07.07-.14.07-.14v-.07h.2c0,.14.14.2.26.14.27-.07.07-.27.27-.33h.14c.2.07.53.07.6-.07,0-.07,0-.46-.2-.6-.14-.07,0-.2-.14-.4.2.14.47.2.73.2.6,0,.07-.07.33-.27.2-.14.53-.07.66-.07.07.07.14.07.07.14-.07.33.07.33,0,.46-.07.14-.33,0-.46,0s-.2.07-.2.07c-.14.07-.27.2-.27.33,0,0,.14-.07.27-.14v.07c0,.2.2.26.33.14,0,0,.07,0,.07.07-.14.07-.33.2-.14.33h.07c0,.14.07.27.2.27q-.07-.07,0-.2h.07c.14,0,.07-.27.2-.33h.07c-.07.14-.07.33.07.33,0,0,0,.07.07.07.07.07.14.2.33.07,0,0-.14-.07-.14-.14.07,0,.07-.07.07-.07.14-.33-.14-.33-.14-.46s.27,0,.27-.33c0-.07,0-.14-.14-.2.07,0,.2,0,.2-.07-.2,0-.14-.2-.14-.33v-.07c.07,0,.14-.14.07-.27-.07.07-.33.2-.33,0,0,0,0-.14-.2-.14-.4.07-.6-.14-1.26-.2-.07,0-.07-.07,0-.07m-4.38-1.59h-.07.07m1.06-.27c0,.07.26.2.4.2-.2.07-.14.14-.27.14-.14,0-.2-.2-.14-.33m-.33-.14c-.07.14-.2.2-.27.07-.14-.07,0-.14-.14-.33.14.14.33.27.4.27m-.46.93l.14-.13c.07,0,.14,0,.14-.07.07-.14,0-.14-.07-.2.07,0,.07-.07.07-.14-.07,0-.14.07-.2,0,0,0,.07-.07.14-.07,0-.07.07-.07.07,0l.4.2q.07,0,.07.07c0,.07.07.07,0,.14-.07,0-.07-.14-.14-.14s-.07.07,0,.14c-.13-.07-.2-.07-.2,0-.07.07-.07.13,0,.2.07.07,0,.14,0,.2-.07.07-.14.2-.27.14-.2-.07-.14-.2-.14-.33m5.33,22.38h-.33v-.33c.07-1.19-.66-2.06-1.92-2.06-1.13,0-3.32,1.46-6.37,1.46-1.26,0-2.85-.6-3.78-1.19l-.4.93v-.14c0-.4-.33-.73-.73-.73-.4,0-.8.33-.8.73,0,.47.4.8.8.8.2,0,.46-.14.59-.27l-.4.86c.14.07.27.13.4.2-.46,4.64,2.99,10.48,9.02,12.34.86-.27,1.79-.14,1.79.86,0,.59-.27.86-.86.86-.33,0-.53-.2-.53-.47,0-.4.66-.2.73-.46.14-.33-.14-.53-.53-.53s-1.06.26-1.06.99c0,.86.66,1.33,1.39,1.33.66,0,2.06-.4,1.86-2.06.33.07.73,0,.8-.33l.07-.93-.33-.07.26-10.61.2.07c.4,0,.73-.2.8-.6,0-.46-.33-.6-.67-.66m-10.94.86l7.36,10.55c-3.91-1.52-7.83-5.04-7.36-10.55m7.63,9.55l-6.77-9.62h.66c.33,0,.66-.07,1-.07l5.37,7.7c-.07.73-.2,1.39-.27,1.99m.46-3.05l-4.71-6.83c.53-.07.99-.27,1.46-.4l3.58,5.04c-.14.73-.2,1.46-.33,2.19m1.13-7.5h-.26c-.33,0-.73.14-.73.53-.07.4.27.66.66.73h.2c-.07.07-.07.14-.07.26-.07.6-.26,1.59-.4,2.72l-3.05-4.24c1.46-.6,2.59-1.19,3.18-1.19.46,0,.6.2.46,1.19m18.31-10.94c.27-.14.47-.26.53-.46-.27.07-.46-.07-.53-.07.14-.14.4,0,.14-.4-.2-.33-.33-.33-.6-.07-.2.2-1.79-.14-1.79-1.26.14.2.33.33.53.46.07,0,.14,0,.2.07.07,0,.14,0,.2.07.13,0,.33.07.46.07h.07v-.07c.33-.07.6-.27.6-.6.07-.66-.53-.93-1.19-1.52-.26-.2-.46-.4-.66-.6-.2-.46-.07-.86-.66-1.72,0-.2-.07-.4-.2-.73-.27.53-.4,1.59.4,2.52.66.66,2.06,1.39,1.99,1.99,0,.13-.13.26-.33.33-.07-.07-.14-.07-.2-.07h-.14c-.14-.07-.2-.07-.33-.14-.14-.14-.26-.2-.46-.4-.6-.53-1.13-1.33-1.46-1.79-.66-.8-.33-1.59-.27-2.32.47-.6-.26-1.86-.66-2.19,0,0,.07-.33-.07-.66-.07.07-.27.07-.4.07-.07-.26-.14-.33-.33-.33-.27-.07-.27-.2-.27-.33-.2.14-.2.26-.4.33-.26,0-.33-.07-.4.07-.2.14-.26.14-.53.14s-.2.2-.2.33,0,.33.2.4h.07l.2.26.14-.26c.14-.07.47-.14.53.14q.07.2-.14.26h-.53c-.2,0-.2.2-.2.33.07.13.2.26.53.13.33-.07.86-.13.86.14,0,.73-.8.73-1,1.53-.2-.14-.4-.27-.46-.46-.18-.26-.38-.51-.6-.73-.2-.14-.4-.33-.6-.46-.26-.2-.33-.33-.33-.6s.14-.46.14-.73c0,0-.07-.14-.07-.2-.07-.14-.27-.27-.4-.27.08.08.15.17.2.27l-.14.13c-.07.07-.07.2,0,.27v.14q0,.07,0,0c-.07-.14-.14-.4-.33-.4h-.14v-.07c0-.2-.2-.33-.4-.14.07.07.14.07.2.14-.07.07-.07.14-.07.14,0,.2.14.27.33.27,0,0,.07,0,.07.07v.07c-.33-.14-.47,0-.47.2v.14c-.14.07-.14.2.07.33,0-.07,0-.14.07-.2h.07c0,.07.07.07.07.07,0,0,.07,0,.14-.07h.14c0,.07.07.07.07.07.07,0,.07.07,0,.07-.2.2-.14.4.07.46-.07.2-.47.14-.47-.2-.27.4.2.73.6.53,0,.2,0,.53.07.53-.07-.07,0-.14.07-.14v.07c0,.13.07.2.2.26,0-.07,0-.14.07-.14.07.07.14.2.2.27.14.33.53,1.19,1.39,1.53-.47.27-.73.6-1,.93-.27.27-.6.47-.8.33-.13-.07-.13-.14-.26-.2-.07-.07-.2-.14-.27-.07,0,0-.07,0-.13.07-.14-.07-.33,0-.4.07.07,0,.14,0,.26.07v.2c0,.07.07.2.53.14,0,0,.07,0,0,.07,0,.07-.07.07-.2.07-.2-.07-.26-.2-.46-.07,0,.07,0,.14-.07.14h-.07c-.14.07-.33.4-.07.53,0-.07,0-.2.07-.27l.14.14c.14.14.27.27.53-.2,0,0,.07,0,.07.07-.07.2-.26.47,0,.53h.14v.07c.07.2.4.27.53.2-.14,0-.26-.14-.33-.26h.14c.2-.2,0-.4.07-.46,0-.07.07-.07.07,0,.07.07.2.27.4.14.14-.07.14-.14.2-.27.26-.14.53-.2.73-.14,0-.2.14-.4.46-.46.26-.07.46,0,.53.14.07-.2.14-.4.33-.6-.07,1.26,1.59,1.26,1.99,1.99-.53-.27-1.06-.33-1.33-.27-.4.07-1.13.4-1.26.86-.07.4.33,1.06.73,1.33-.46.14-.59-.07-1.06.07h-.07c-.33,0-.4-.6-.86-.46,0,0-.07.07-.14.07-.14,0-.4.2-.33.4,0-.07.14-.14.27-.14v.07c0,.07,0,.14.14.14h.2s.07,0,.07.07c0,.14-.6-.14-.47.33l.07.14c0,.14.13.33.33.2,0,0-.14-.07-.07-.14h.07q.07,0,.07-.07,0-.07.07-.07v.34c0,.14.26.33.53.14-.07,0-.27,0-.27-.07s.14-.07.14-.07v-.2h.07q.07,0,.14-.07c.07,0,.07.07.07.07.07.14.2.2.33.14.14,0,.14-.07.2-.14.07.07.07.14.14.14,0-.14.14-.33.53-.07l.27-.2s.33.14.47,0c.26-.2.14-.2.14-.4-.2-.4-.27-.33-.33-.73-.14-.6.73-.93,1.19-.86.14.4.66,1.46,1.52,1.73.6.2.8-.4,1-.33.07,0,.07.07.14.2-.07.27,0,.53-.07.66-.07.14-.4,0-.59,0-.07,0-.2.07-.2.07-.2.07-.4.2-.4.4.09-.08.21-.13.33-.14l.07.07c0,.26.26.33.4.14,0,0,.07,0,.07.07-.14.07-.4.33-.2.4,0,0,.07.07.14.07,0,.14.13.33.26.33q-.07-.14,0-.33h.14c.14,0,.07-.26.2-.33.07-.07.07,0,.07,0-.07.14-.07.33.07.4,0,0,.07,0,.14.07,0,.14.2.2.4.07,0,0-.14-.07-.2-.14l.14-.14c.14-.33-.2-.33-.2-.53s.33-.07.33-.4v-.07c.2-.14.4-.2.4-.33-.27,0-.47-.07-.47-.14l-.06-.05Zm3.45,2.12c.33.2.2.8-.2.73-.47-3.57-1.76-6.97-3.78-9.95q0-.07.07-.07c.44-.18.75-.59.8-1.06-.6-.07-1,.2-1.26.6-.14-.2-.26-.4-.4-.6-1.22-1.54-2.67-2.89-4.31-3.98-1.44-.98-3.03-1.72-4.71-2.19,0-.33.53-.4.73-.07.07-.66-.47-.93-.8-.8-.13.07-.33.2-.33.46-.2-.27-.46-.4-.93-.46,0,.4.14.73.27.93-.27,0-.4.14-.46.27-.2.27,0,.86.66.93-.33-.26-.2-.73.2-.73v7.7c-.4-.14-.86-.07-1.26.33.4.4.86.47,1.26.33v8.36c-.4,0-.53-.46-.2-.73-.6,0-.86.53-.73.86.07.2.27.33.6.33-.2.2-.33.46-.33.86.4,0,.66-.14.86-.33,0,.33.14.53.33.6.33.14.86-.07.86-.73-.2.33-.73.2-.73-.13h5.83c-.14.33-.07.86.33,1.26.4-.4.4-.93.33-1.26h6.43c0,.4-.47.46-.73.2.07.6.6.86.86.73.2-.14.4-.33.33-.66.24.22.54.33.86.33,0-.4-.14-.66-.33-.93.26.07.53-.04.66-.27.07-.33-.2-.86-.8-.86m-5.57-10.15c-.2.13-.27.4-.2.53.09.25.33.41.59.4-.2.2-.4.47-.46.8.4.07.66,0,.93-.2-.07.33,0,.53.2.66.14.14.33.14.53,0,1.46,2.45,2.52,5.17,2.92,8.03-.2-.18-.46-.27-.73-.27.07.47.2.73.4.93h-4.91c.07-.33-.14-.6-.33-.66-.2-.07-.4,0-.66.26,0-.32-.11-.63-.33-.86-.27.27-.4.6-.4.86-.27-.26-.46-.33-.66-.26-.2.07-.33.33-.33.66h-4.18c.14-.2.27-.46.27-.8-.29,0-.56.1-.8.27v-6.77c.27,0,.6-.13.66-.33.07-.2,0-.46-.26-.66.26,0,.6-.13.86-.4-.27-.27-.6-.33-.86-.4.26-.2.33-.47.26-.66-.07-.2-.4-.33-.66-.33v-5.7c.18.17.42.26.66.27.07-.27.02-.56-.13-.8,1.26.4,2.52,1.06,3.71,1.86,1.46.93,2.79,2.12,3.91,3.58m18.38,12.55c-.73-.53-1.86-1.59-2.45-2.85-.73-1.53-3.85-7.7-4.31-8.49-.4-.73-.6-1.33-.6-1.86,0-.66.27-1.19.66-1.66.2-.26.86-.93,1.13-1.33.2-.33.4-.53.6-.73-1.13-1.99-2.32-3.45-3.85-5.17-1.79-2.06-3.85-3.85-6.1-5.24,1.19-.8,2.45-1.92,2.45-3.78,0-1.13-.46-1.99-1.26-2.72,1.26-4.05,3.51-8.89,5.44-11.01l-4.05-1.73c1.06,1.66,1.13,3.52.86,4.58-1.06-.73-1.92-1.72-2.26-3.05-.2,1.26-.86,3.25-1.46,4.38,1.13-.53,2.12-.8,3.25-.26-.66.93-2.39,2.32-5.04,1.66-1.46-.33-2.92-1.06-2.85-2.19.07-.66.53-1.46,1.46-1.39.86.07.93,1.46.66,2.06,1.13-.66,2.32-4.05.53-4.58-1.39-.4-2.72,1.59-3.18,3.05-.26-1.79-.99-3.51-2.45-3.45-1.86.14-1.26,3.58-.6,4.45.07-1.2.73-1.86,1.33-1.79.47.07,1.13.4,1,1.46-.07,1.13-1.66,1.79-3.45,1.79s-4.71-.53-4.97-3.85c1.13.2,2.85,1.06,3.58,2.19-.2-1.99-.27-3.45,0-5.5-.93,1.32-2.46,1.99-3.52,2.19.27-1.46,1.53-2.92,2.92-3.85h-7.36c1.46.93,2.65,2.39,2.98,3.78-1.13-.13-2.59-.86-3.51-2.12.26,2.06.26,3.52,0,5.5.73-1.13,2.45-1.92,3.51-2.12-.26,3.25-3.25,3.78-4.97,3.78s-3.32-.66-3.45-1.79c-.14-1.06.53-1.39,1-1.46.6-.07,1.26.59,1.33,1.79.66-.86,1.26-4.31-.6-4.45-1.39-.07-2.19,1.66-2.45,3.45-.46-1.46-1.72-3.45-3.18-3.05-1.79.53-.6,3.91.53,4.58-.26-.6-.2-1.99.66-2.06.93-.07,1.39.73,1.46,1.39.07,1.13-1.39,1.86-2.79,2.19-2.65.66-4.38-.73-5.11-1.66,1.19-.53,2.19-.27,3.32.26-.6-1.13-1.26-3.12-1.46-4.38-.33,1.33-1.26,2.39-2.32,3.12-.2-1.13-.13-2.98.86-4.64l-3.98,1.72c1.86,2.12,4.18,7.03,5.44,11.08-.8.66-1.2,1.52-1.2,2.65,0,1.86,1.13,2.99,2.39,3.78-2.25,1.39-4.31,3.18-6.1,5.24-2.79,3.12-4.98,6.77-6.5,10.81.6.53,2.99,3.18,3.58,3.91.99,1.26,1.59,2.52,1.66,3.51,0,1.86.4,2.59,1.39,3.78.27.4.73,1.86.8,2.72h20.1v21.89c-.8,0-1.66.27-2.32,1.06,2.32.93,4.51,1.79,6.77,2.45.2-1.39.46-2.32,1.19-3.18,0,0-2.92-.27-4.44-.4v-21.82h19.63c-.14,2.99-.66,5.9-1.66,8.69-.98,2.79-2.46,5.37-4.38,7.63-1.86,2.19-4.11,3.91-6.5,5.17-.4.2-.4.47-.8.6-.33.4-.66,1.06-.99,1.79-.2.66-.33,1.13-.4,1.99.86.26,1.39.46,2.26.66,6.9,1.72,8.62,1.19,9.02.93v-.07c1.52-1.19,2.98-2.52,4.31-4.05,2.79-3.12,4.98-6.77,6.5-10.81,1.54-4.25,2.32-8.74,2.32-13.27,0-.86.07-1.13,0-1.92m-30.51,1.46h-20.16c.07-3.12.6-6.1,1.66-8.96.99-2.85,2.52-5.44,4.38-7.69,1.8-2.12,4.01-3.86,6.5-5.11,2.45-1.19,4.98-1.86,7.63-1.86v23.61Zm.33-33.5c-6.7,0-11.34,1.99-13.99,3.78-1.59-.93-2.26-1.79-2.26-2.85,0-3.85,10.81-4.18,16.25-4.18s16.25.33,16.25,4.18c0,1.06-.66,1.92-2.26,2.85-2.65-1.79-7.3-3.78-14-3.78m.86,33.5v-23.61c2.45.14,4.84.73,7.1,1.86,2.49,1.25,4.7,2.99,6.5,5.11,1.86,2.26,3.38,4.84,4.38,7.69,1.06,2.85,1.59,5.84,1.66,8.96h-19.63Zm67.13,48.88c-.07-.27-.4-.4-.66-.33-6.3,1.86-14.13-3.38-21.69-8.42-6.37-4.18-12.34-8.22-17.51-8.22-1.92,0-3.58.4-5.04,1.19-1.79,1-3.12,2.59-3.98,4.64-.71,1.64-1.55,3.21-2.52,4.71-.93,1.39-1.52,2.39-1.52,3.65,0,1,.46,1.92,1.33,2.79.73.73,1.72,1.46,3.25,2.26.33.2.66.33.99.46,1.26.66,2.06,1.06,2.19,1.73-2.52,1.13-5.7,2.06-9.42,2.65-4.11.73-8.62,1.13-13.4,1.13s-9.35-.4-13.47-1.13c-3.65-.6-6.9-1.52-9.42-2.65.14-1.06.93-1.46,2.26-2.12.33-.14.66-.27.99-.46,1.26-.66,2.46-1.33,3.25-1.99.86-.8,1.26-1.66,1.26-2.65,0-1.26-.6-2.25-1.46-3.65-.73-1.13-1.66-2.59-2.52-4.71-.86-2.06-2.19-3.65-4.05-4.64-1.39-.8-3.12-1.19-4.97-1.19-5.17,0-11.21,4.05-17.58,8.22-7.56,5.04-15.32,10.28-21.62,8.42-.33-.07-.6.07-.73.4-.07.27.07.6.33.66,1.92.86,3.58,2.19,5.24,3.45,2.26,1.79,4.38,3.45,6.77,3.45,2.26,0,4.64-.66,7.56-2.19,2.52-1.39,5.17-3.18,7.7-4.91,4.97-3.38,10.15-6.9,14.99-7.3-.46.53-.99.99-1.46,1.39-1.46,1.26-2.65,2.39-2.65,4.64,0,1.79.6,3.05,1.46,4.84.2.53.53,1.06.8,1.72.53,1.19.73,2.19,1.06,3.51.2.6.33,1.19.53,1.99.33,1.13.86,3.32,4.44,5.11,4.18,2.12,11.34,3.18,21.29,3.18s17.11-1.06,21.23-3.18c3.58-1.79,4.18-3.98,4.45-5.11.2-.8.4-1.39.53-1.99.33-1.33.53-2.32,1.13-3.51.4-.86.73-1.59,1.13-2.26.73-1.39,1.33-2.45,1.33-4.11,0-2.26-1.33-3.38-2.85-4.78-.46-.46-1-.93-1.52-1.46,4.91.4,10.02,3.91,14.99,7.3,2.52,1.72,5.17,3.52,7.76,4.84,2.92,1.52,5.31,2.26,7.56,2.26s4.51-1.66,6.77-3.45c1.59-1.26,3.32-2.59,5.24-3.45.27-.07.4-.4.27-.73m-63.14-6.44c-.33,0-.6.07-.86.14v-5.37c-2.39-.07-5.11-.46-7.89-1.19v6.57c-.3-.08-.61-.13-.93-.14-1.92,0-3.05,1.59-3.05,3.05s.8,2.65,1.53,3.45c.33-.8.66-1.53,1.13-1.53.93,0,.53,4.71,3.25,4.84-.08.23-.13.48-.13.73,0,1.19.93,2.12,2.12,2.12s2.12-.93,2.12-2.12c0-.27,0-.53-.14-.73,2.79-.14,2.32-4.84,3.25-4.84.46,0,.73.66,1.19,1.53.66-.8,1.46-2.06,1.46-3.45s-1.13-3.05-3.05-3.05m-4.84,11.74c-.66,0-1.19-.52-1.19-1.18,0,0,0,0,0-.01,0-.66.53-1.19,1.19-1.19s1.19.53,1.19,1.19c0,.66-.52,1.19-1.18,1.19,0,0,0,0-.01,0m6.43-6.77c-.33-.66-.8-1-1.26-1-1.79,0-1.06,4.84-3.25,4.84-.99,0-1.52-.6-1.52-1.26s.53-.86.53-1.46c0-.53-.46-.73-.93-.73s-.86.2-.86.73c0,.6.46.8.46,1.46s-.53,1.26-1.53,1.26c-2.12,0-1.46-4.84-3.25-4.84-.4,0-.93.33-1.19.99-.4-.73-.6-1.39-.6-1.92,0-.86.66-2.12,2.12-2.12,2.45,0,1.86,3.38,3.05,3.38.53,0,.93-.33.93-.86,0-.93-1.72-1.86-1.72-3.18,0-1.39,1.19-2.52,2.59-3.65,1.39,1.13,2.65,2.25,2.65,3.65s-1.73,2.25-1.73,3.18c0,.53.33.86.86.86,1.19,0,.6-3.38,3.05-3.38,1.46,0,2.12,1.26,2.12,2.12,0,.53-.2,1.19-.53,1.92m1.27-18.24c-4.51-1.13-9.88-3.05-14.86-5.31v-.07c.14-1.06-.27-2.19-1-3.05-.8-.86-1.86-1.39-2.85-1.39-.46,0-.93.07-1.39.26-.73-.66-1.39-1.39-2.06-2.12-1.93-2.27-3.41-4.88-4.38-7.7-.61-1.63-1.06-3.32-1.33-5.04-.27,1.46-1.86,3.38-4.71,3.38.07-.26.07-.99-.2-1.13-.73.86-1.86,1.72-4.44.86.4,1.99,1,3.91,1.66,5.84,1.52,4.05,3.71,7.69,6.5,10.81.86,1.06,1.86,1.99,2.85,2.85v.6c0,1.06.99,2.72,2.45,3.45,1.19.59,2.52.46,3.65-.4,2.54,1.29,5.21,2.31,7.96,3.05,3.38.93,6.63,1.46,9.15,1.46,2.19,0,5.11-1,7.96-2.79,1.13-.73,2.19-1.52,2.99-2.32.14-.07.27-.2.33-.27-2.19.33-5.57-.33-8.29-1m-16.45-6.77l-.53-.33c-.86-.66-1.59-.66-2.39,0-.33.33-.66.73-.99,1.06l-.53.6.33.26c.93.73,1.06,1.53.8,1.99-.07.2-.27.33-.46.4-.46.14-1.06-.07-1.73-.46l-.4-.2-.2.33c-.07.07-.07.2-.14.27-.14.13-.2.2-.26.4-.4.66-.6,1.19-.6,1.59,0,.14,0,.27.07.33.14.53.53.8.86.93l.26.2c.4.2,1,.6,1.39.8-.8.46-1.59.53-2.45.14-1.19-.6-1.99-1.99-1.99-2.72,0-1.06.47-2.39,1.33-3.78l.14-.2-.14-.26c-.25-.37-.45-.77-.6-1.19.47.07.93.14,1.39.27l.2.07.2-.2c.53-.6,2.39-2.52,4.18-2.52.8,0,1.59.46,2.19,1.13.46.53.73,1.13.86,1.73l-.8-.6m2.85,8.56c-1.06,0-1.92-.86-1.92-1.92.04-1.06.93-1.89,1.99-1.85,1.01.04,1.82.85,1.85,1.85,0,1.06-.86,1.92-1.92,1.92m8.42,2.59c-.93,0-1.72-.8-1.72-1.79,0-.93.8-1.72,1.73-1.72.99,0,1.79.8,1.79,1.72,0,1-.8,1.79-1.79,1.79m-.13-102.48c-1-.8-1.79-1.92-1.92-3.18,1.19.2,2.45,1.06,3.25,2.06v-4.91c-.8.99-2.06,1.86-3.25,2.06.13-1.19.86-2.26,1.86-3.52h-4.78c1.06,1.26,1.79,2.32,1.92,3.52-1.19-.2-2.52-1.06-3.25-2.06v4.91c.73-1,2.06-1.86,3.25-2.06-.14,1.26-.93,2.39-1.99,3.18h4.91Zm-6.83,5.97c.46,1.99,2.25,3.51,4.38,3.51s3.98-1.53,4.38-3.51h-8.76Zm5.31-1.79h3.52c-.33-1.79-1.73-3.25-3.52-3.58v3.58Zm-1.79,0v-3.58c-1.82.31-3.24,1.76-3.51,3.58h3.51Zm3.32,6.77c-.47.27-1.06.4-1.59.47v6.17h1.59v-6.63Zm-4.84,6.63h1.59v-6.1c-.6-.14-1.13-.26-1.59-.53v6.63Zm5.17-7.76c0,.8.66,1.46,1.46,1.46.73,0,1.39-.66,1.39-1.46s-.66-1.39-1.39-1.39c-.8,0-1.46.6-1.46,1.39m4.78-.13c.8,0,1.39-.66,1.39-1.46,0-.73-.6-1.39-1.39-1.39s-1.46.66-1.46,1.39c0,.8.66,1.46,1.46,1.46m3.51-1c.8,0,1.46-.66,1.46-1.46s-.66-1.39-1.46-1.39c-.75-.02-1.37.58-1.39,1.33,0,.02,0,.04,0,.06,0,.8.59,1.46,1.39,1.46m10.08,3.18c.8,0,1.46-.66,1.46-1.46s-.66-1.39-1.46-1.39c-.75-.02-1.37.58-1.39,1.33,0,.02,0,.04,0,.07,0,.8.6,1.46,1.39,1.46m-2.79-2.45c.8,0,1.39-.66,1.39-1.39,0-.8-.6-1.46-1.39-1.46s-1.46.66-1.46,1.46c0,.73.66,1.39,1.46,1.39m-3.58-1.06c.8,0,1.46-.66,1.46-1.46s-.66-1.39-1.46-1.39c-.73,0-1.39.6-1.39,1.39s.66,1.46,1.39,1.46m7.7,10.88c-.75-.02-1.37.58-1.39,1.33,0,.02,0,.04,0,.07,0,.8.6,1.46,1.39,1.46s1.46-.66,1.46-1.46-.66-1.39-1.46-1.39m.73-3.52c-.8,0-1.46.66-1.46,1.46s.66,1.39,1.46,1.39c.75.02,1.37-.58,1.39-1.33,0-.02,0-.04,0-.07,0-.8-.6-1.46-1.39-1.46m-1.92-1.99c0,.8.66,1.39,1.46,1.39.75.02,1.37-.58,1.39-1.33,0-.02,0-.04,0-.07,0-.8-.6-1.46-1.39-1.46s-1.46.66-1.46,1.46m-25.47-2.45c.8,0,1.39-.66,1.39-1.46.02-.75-.58-1.37-1.33-1.39-.02,0-.04,0-.07,0-.8,0-1.46.6-1.46,1.39s.66,1.46,1.46,1.46m-3.32-1.59c.8,0,1.39-.66,1.39-1.46,0-.73-.6-1.39-1.39-1.39s-1.46.66-1.46,1.39c0,.8.66,1.46,1.46,1.46m-3.58-1c.8,0,1.46-.66,1.46-1.46s-.66-1.39-1.46-1.39c-.73,0-1.39.6-1.39,1.39s.66,1.46,1.39,1.46m-10.02,3.18c.8,0,1.39-.66,1.39-1.46.02-.75-.58-1.37-1.33-1.39-.02,0-.04,0-.06,0-.8,0-1.46.6-1.46,1.39s.66,1.46,1.46,1.46m2.79-2.45c.73,0,1.39-.66,1.39-1.39,0-.8-.66-1.46-1.39-1.46-.8,0-1.46.66-1.46,1.46,0,.73.66,1.39,1.46,1.39m3.51-1.06c.8,0,1.46-.66,1.46-1.46s-.66-1.39-1.46-1.39c-.75-.02-1.37.58-1.39,1.33,0,.02,0,.04,0,.06,0,.8.6,1.46,1.39,1.46m-6.23,12.27c0-.8-.66-1.39-1.46-1.39-.73,0-1.39.6-1.39,1.39s.66,1.46,1.39,1.46c.8,0,1.46-.66,1.46-1.46m-.73-3.45c0-.8-.6-1.46-1.39-1.46s-1.46.66-1.46,1.46.66,1.39,1.46,1.39c.75.02,1.37-.58,1.39-1.33,0-.02,0-.04,0-.07m-.93-2.06c.8,0,1.46-.6,1.46-1.39s-.66-1.46-1.46-1.46-1.39.66-1.39,1.46.6,1.39,1.39,1.39m33.3.93c.8,1.59,1.53,2.52,1.39,3.71-.07,1.2-1.39,2.06-1.92,3.32-.6-1.46-1.46-2.52-1.39-3.65.14-1.06,1.66-2.59,1.92-3.38m-21.16,0c-.8,1.59-1.52,2.52-1.39,3.71.14,1.2,1.39,2.06,1.99,3.32.53-1.46,1.46-2.52,1.33-3.65-.07-1.06-1.66-2.59-1.92-3.38m330.39,302.53c-.4-8.16-6.57-14.73-14.99-14.73-9.02,0-14.33,6.77-14.92,14.73h29.91Zm8.29,14.53c-2.32,11.48-10.61,17.71-22.29,17.71-16.65,0-24.54-11.48-25.01-27.39,0-15.66,10.28-27.13,24.48-27.13,18.51,0,24.14,17.25,23.61,29.85h-39c-.33,9.09,4.84,17.11,16.19,17.11,7.1,0,12-3.38,13.53-10.15h8.49Zm-61.22-18.9c-1.33-6.5-5.84-10.35-12.87-10.35-12.47,0-16.25,9.75-16.25,20.36,0,9.55,4.31,19.04,15.19,19.04,8.29,0,13.2-4.84,14.33-12.67h8.76c-1.86,12.67-9.88,20.23-22.95,20.23-15.92,0-24.41-11.08-24.41-26.6s8.03-27.93,24.61-27.93c11.81,0,21.29,5.5,22.49,17.91h-8.89Zm-54.85-16.72h8.56v52.14h-8.56v-52.14Zm8.56-9.35h-8.56v-10.48h8.56v10.48Zm-25.74,9.35h10.35v7.56h-10.35v32.37c0,3.91,1.06,4.64,6.43,4.64h3.91v7.56h-6.5c-8.89,0-12.4-1.79-12.4-11.41v-33.17h-8.89v-7.56h8.89v-15.65h8.56v15.65Zm-54.92,35.69c.33,7.7,6.97,10.08,14.06,10.08,5.31,0,12.6-1.19,12.6-7.76s-8.49-7.76-17.05-9.69c-8.49-1.92-17.05-4.71-17.05-14.72s10.35-14.79,19.43-14.79c11.54,0,20.69,3.58,21.42,16.32h-8.62c-.6-6.63-6.43-8.76-12.07-8.76-5.11,0-11.08,1.39-11.08,6.63,0,6.17,9.09,7.16,17.05,9.09,8.56,1.92,17.05,4.71,17.05,14.79,0,12.47-11.61,16.45-22.22,16.45-11.67,0-21.56-4.71-22.09-17.64h8.56Zm-16.05,16.45h-8.03v-8.29h-.2c-3.65,6.5-9.49,9.49-16.98,9.49-13.73,0-17.91-7.83-17.91-19.04v-34.29h8.56v35.29c0,6.37,4.05,10.48,10.61,10.48,10.35,0,15.39-6.96,15.39-16.32v-29.45h8.56v52.14Zm-54.72-17.98c0,9.82-5.11,19.7-21.29,19.7-13.4,0-20.96-7.43-20.96-20.96v-4.45h9.55v2.99c0,8.42,2.26,14.33,11.61,14.33,8.76,0,11.54-5.04,11.54-13v-52.67h9.55v54.06Zm-90.34-26.6h-8.82v-7.56h8.82v-7.76c0-8.49,5.04-12.93,14.39-12.93,1.59,0,3.91.33,5.57.8v7.49c-1.52-.53-3.32-.73-4.84-.73-4.18,0-6.57,1.33-6.57,5.9v7.23h10.08v7.56h-10.08v44.57h-8.56v-44.57Zm-35.68,38.21c8.95,0,16.25-7.03,16.25-19.63s-7.3-19.77-16.25-19.77-16.25,7.03-16.25,19.77,7.3,19.63,16.25,19.63m0-46.96c16.52,0,25.34,12.01,25.34,27.33s-8.82,27.2-25.34,27.2-25.34-11.94-25.34-27.2,8.82-27.33,25.34-27.33m287.67-45.63c-3.98,10.15-7.49,13.86-15.12,13.86-2.06,0-4.05-.2-5.97-.86v-7.89c1.59.53,3.32,1.19,5.04,1.19,3.51,0,5.44-1.72,7.03-4.71l3.58-8.89-20.7-51.87h9.69l15.26,42.72h.2l14.59-42.72h9.09l-22.68,59.17Zm-55.65-59.17h8.09v11.01h.2c4.11-8.36,9.88-12.47,19.17-12.2v9.09c-13.86,0-18.9,7.89-18.9,21.09v23.22h-8.56v-52.2Zm-16.65,0h10.41v7.63h-10.41v32.37c0,3.91,1.13,4.58,6.43,4.58h3.98v7.63h-6.57c-8.89,0-12.4-1.86-12.4-11.41v-33.17h-8.89v-7.63h8.89v-15.59h8.56v15.59Zm-54.85,35.75c.27,7.63,6.97,10.08,14,10.08,5.37,0,12.6-1.19,12.6-7.76s-8.49-7.76-17.05-9.69c-8.49-1.92-17.05-4.78-17.05-14.72,0-10.48,10.41-14.86,19.5-14.86,11.48,0,20.69,3.65,21.36,16.38h-8.56c-.59-6.7-6.43-8.82-12.14-8.82-5.11,0-11.08,1.46-11.08,6.7,0,6.1,9.09,7.16,17.05,9.09,8.56,1.86,17.05,4.71,17.05,14.79,0,12.4-11.61,16.45-22.15,16.45-11.74,0-21.62-4.78-22.09-17.64h8.56Zm-24.67-35.69h8.56v52.14h-8.56v-52.14Zm8.56-9.42h-8.56v-10.48h8.56v10.48Zm-62.28,9.35h8.03v8.29h.2c3.65-6.43,9.49-9.48,16.98-9.48,13.73,0,17.91,7.89,17.91,19.1v34.29h-8.56v-35.35c0-6.3-3.98-10.48-10.55-10.48-10.41,0-15.46,6.96-15.46,16.38v29.45h-8.56v-52.2Zm-19.1-9.35h8.56v-10.48h-8.56v10.48Zm0,61.55h8.56v-52.14h-8.56v52.14Zm-83.91-72.03h13.13l22.68,60.49,22.82-60.49h13.07v72.03h-9.02v-59.96h-.26l-22.49,59.96h-8.16l-22.48-59.96h-.2v59.96h-9.09v-72.03Zm-50.94,177.96h8.49V160.58h-8.49v357.12Z"></path></svg> 